<?xml version="1.0" encoding="UTF-8" standalone="no"?>
<!-- Created with Inkscape (http://www.inkscape.org/) -->

<svg
   version="1.1"
   id="svg824"
   width="564"
   height="563"
   viewBox="0 0 564 563"
   xmlns="http://www.w3.org/2000/svg"
   xmlns:svg="http://www.w3.org/2000/svg">
  <defs
     id="defs828" />
  <g
     id="g830">
    <path
       style="fill:#000000;stroke-width:0.905313"
       d="m 72.049009,540.66997 c -6.8804,-1.57121 -12.82336,-4.94643 -16.95143,-9.62735 -5.04935,-5.72558 -6.21552,-9.2393 -6.02084,-18.14101 0.20351,-9.30485 2.70566,-15.28904 9.38083,-22.4353 2.51256,-2.68988 5.03548,-6.37028 5.60648,-8.17867 0.571,-1.80839 1.32636,-3.28797 1.67858,-3.28797 0.35221,0 1.50666,1.86365 2.56543,4.14147 1.41105,3.03567 2.58123,4.28845 4.38265,4.69195 10.12655,2.26828 15.446307,6.82969 17.1286,14.68686 0.945408,4.41554 0.889624,5.65494 -0.41526,9.22622 -1.712517,4.68692 -4.552975,7.05229 -8.46873,7.05229 -3.17731,0 -3.35065,-0.98883 -0.80436,-4.58859 1.51371,-2.13998 1.75845,-3.35876 1.24703,-6.21001 -1.41306,-7.87789 -5.02953,-11.09561 -11.35611,-10.10399 -8.99307,1.40958 -15.68317,9.20745 -15.68317,18.28003 0,8.78574 3.88969,14.84157 11.8244,18.40933 3.91585,1.76071 5.64262,1.96934 13.16589,1.59069 7.793466,-0.39225 9.335568,-0.78534 15.428539,-3.93281 8.011812,-4.13868 16.623342,-12.61014 19.807652,-19.48549 4.01235,-8.66317 3.25,-21.35328 -1.75858,-29.27327 -2.79523,-4.42007 -4.278,-9.11245 -2.87948,-9.11245 1.55643,0 7.42847,7.51249 9.26623,11.85491 2.549,6.02297 1.90022,18.99185 -1.28217,25.63 -1.22022,2.54527 -2.4689,5.71685 -2.77485,7.04794 -0.77359,3.36566 -11.47102,13.63268 -17.946793,17.2247 -5.17777,2.87203 -14.813218,5.84956 -18.499168,5.71659 -0.97407,-0.0352 -3.96268,-0.56437 -6.64137,-1.17607 z m 283.364861,-1.66533 c -1.70462,-0.50303 -4.9948,-2.57513 -7.3115,-4.60467 -2.96742,-2.59959 -4.72041,-3.52148 -5.93193,-3.11958 -2.08392,0.69131 -3.24272,3.97665 -1.8983,5.38186 2.61537,2.73362 -1.62685,3.54761 -5.12851,0.98405 -1.74974,-1.28097 -1.99597,-2.07946 -1.5979,-5.18152 0.48761,-3.79977 3.53051,-8.113 5.72356,-8.113 1.006,0 1.13031,-0.96281 0.62258,-4.82148 -1.50185,-11.41336 0.63938,-19.45724 6.70375,-25.18375 5.56773,-5.25755 15.7504,-5.69913 19.40606,-0.84158 2.49242,3.31187 2.33028,3.68901 -1.83721,4.27326 -3.81478,0.5348 -8.59437,3.93794 -11.76526,8.37703 -1.27521,1.78523 -1.89835,4.33653 -2.13451,8.73919 -0.31079,5.79415 -0.13161,6.5319 2.6292,10.82547 4.65654,7.24177 12.31059,10.79269 19.12795,8.87397 1.84332,-0.5188 5.70753,-2.42615 8.58713,-4.23856 8.22821,-5.17879 10.64814,-2.55601 2.77861,3.01152 -7.98802,5.65135 -19.83608,8.0392 -27.97372,5.63779 z m -205.43953,-2.16798 c 0,-0.26007 0.86227,-2.3902 1.91615,-4.73361 2.17366,-4.83334 6.01523,-7.74269 10.23037,-7.74781 2.24619,-0.003 4.14794,-1.22677 8.99285,-5.78817 7.71172,-7.26044 13.94282,-15.3014 12.7906,-16.50572 -0.98537,-1.02992 -5.47128,0.48727 -12.58237,4.25551 -4.20108,2.22619 -5.49962,2.47619 -10.8021,2.07965 -4.84043,-0.36199 -6.90716,-1.04107 -10.49777,-3.44934 -4.32714,-2.90226 -8.90288,-7.67803 -8.90288,-9.29206 0,-0.43342 2.09203,-1.61377 4.64895,-2.623 2.55693,-1.00922 6.84061,-2.90933 9.51929,-4.22245 5.48771,-2.69013 9.87552,-3.07786 11.5117,-1.01724 0.6063,0.76358 1.62758,1.38833 2.2695,1.38833 0.64193,0 2.84717,2.0825 4.90053,4.62777 5.14022,6.37162 8.13503,6.22222 16.27531,-0.81191 4.30917,-3.72361 4.44355,-3.76951 6.06746,-2.07216 1.59114,1.66309 1.5957,1.83945 0.1088,4.21135 -1.98073,3.15965 -1.87402,6.29811 0.42108,12.3841 2.0258,5.37186 2.24753,10.2547 0.6616,14.56968 -1.80632,4.91467 -8.00273,15.21995 -9.15152,15.21995 -1.37304,0 -2.94544,-5.70332 -2.952,-10.70727 -0.006,-4.59173 2.06677,-12.15389 4.75777,-17.35777 1.31845,-2.54964 1.82808,-4.7189 1.4963,-6.36908 -0.48597,-2.41706 -0.56696,-2.44867 -2.37106,-0.92556 -1.02735,0.86734 -3.47913,3.89929 -5.44843,6.73765 -3.8961,5.61552 -7.43092,9.60272 -13.29638,14.99805 -2.08335,1.91637 -4.72367,5.22561 -5.86738,7.35387 -1.40058,2.60627 -3.05488,4.23843 -5.06723,4.99942 -2.99827,1.13383 -9.62914,1.68323 -9.62914,0.79782 z m 318.136,-0.5378 c -1.57479,-0.48698 -4.46379,-2.47681 -6.41999,-4.42183 -3.31034,-3.29145 -3.55672,-3.88888 -3.55672,-8.6247 0,-10.91558 6.80597,-17.67142 14.06122,-13.95763 1.90863,0.97699 3.53312,2.65508 4.03075,4.16377 1.02291,3.10122 0.11067,4.25553 -2.18095,2.75969 -2.20739,-1.44088 -7.27572,-1.44746 -8.6498,-0.0112 -0.58444,0.61086 -1.06261,2.63856 -1.06261,4.50598 0,2.80431 0.71391,4.14151 4.10133,7.68209 4.7655,4.98098 7.36443,5.43031 12.74949,2.20428 4.22191,-2.52922 5.72872,-5.97457 5.56581,-12.72636 -0.15971,-6.61921 -2.69448,-12.47517 -7.49046,-17.30487 -9.55364,-9.62081 -22.64087,-10.35453 -32.32155,-1.81208 -3.23053,2.85069 -3.49733,2.92053 -4.1689,1.09129 -0.31209,-0.85005 1.24717,-3.20891 4.12972,-6.24748 3.57805,-3.77171 4.89332,-5.97059 5.78419,-9.67 2.9587,-12.28638 -3.85681,-24.36677 -13.74721,-24.36677 -8.37987,0 -16.43621,7.32494 -14.93452,13.57869 1.27439,5.30716 7.44271,8.86303 12.15178,7.00519 2.85041,-1.12456 3.1072,-0.43076 1.23852,3.34628 -2.35571,4.76141 -7.3669,5.87965 -13.43675,2.99842 -3.88248,-1.84293 -6.81724,-5.45628 -7.767,-9.56295 -0.74379,-3.216 1.49773,-14.62089 3.50195,-17.81802 2.624,-4.18579 7.91003,-6.38782 15.42159,-6.42421 17.43799,-0.0845 25.16937,13.36085 19.92763,34.65539 l -0.57257,2.32606 6.92588,0.0206 c 11.18651,0.0332 19.7656,5.3507 25.71122,15.93634 1.96975,3.50695 2.45374,5.48876 2.42606,9.93423 -0.0468,7.50782 -1.60081,11.73879 -6.12433,16.67341 -2.76434,3.01557 -4.50108,4.15501 -6.34708,4.16418 -1.39775,0.007 -3.33834,0.18703 -4.31241,0.40016 -0.97407,0.21314 -3.0595,-0.0109 -4.63429,-0.49791 z m -57.50799,-6.42881 c -2.52108,-1.99704 -4.85582,-4.52683 -5.18829,-5.62174 -0.33249,-1.09492 -0.32807,-5.8447 0.01,-10.55508 l 0.61431,-8.56432 -3.03647,-2.42076 c -1.6701,-1.33142 -3.29777,-2.42076 -3.61707,-2.42076 -0.3193,0 -0.58055,1.5785 -0.58055,3.50776 0,4.21438 -2.11824,13.08164 -4.06489,17.01626 -1.27543,2.57793 -1.53723,2.70938 -2.78947,1.40054 -1.25222,-1.30886 -1.21299,-1.86258 0.41793,-5.89978 5.21007,-12.89707 2.13977,-26.79338 -8.33994,-37.74692 -9.5326,-9.96361 -19.56602,-14.38771 -32.56336,-14.35837 -15.15435,0.0342 -25.86755,4.45269 -35.91978,14.81452 -6.11873,6.30717 -13.26164,17.6363 -13.26164,21.03382 0,1.08572 -0.39849,2.23144 -0.88552,2.54606 -1.38809,0.89667 -1.04367,-2.46919 0.83743,-8.18391 2.29468,-6.97116 7.19325,-14.51237 12.76331,-19.64875 5.74003,-5.29311 18.85619,-12.14325 25.80469,-13.47694 6.60845,-1.26841 22.08356,-0.47476 29.14732,1.49484 10.43469,2.90954 20.7856,12.99899 26.71331,26.03855 2.47447,5.44324 3.80338,7.15877 7.65899,9.88719 5.06908,3.58714 12.43345,6.2029 17.46352,6.2029 1.74852,0 5.95346,-0.80408 9.3443,-1.78685 4.62272,-1.3398 6.33152,-1.51347 6.83003,-0.69416 1.1757,1.9323 0.7855,2.27805 -4.79308,4.24715 -6.1601,2.17436 -12.58001,2.45882 -19.23818,0.85244 -7.41022,-1.78782 -7.03379,-0.23396 1.61029,6.64697 2.65222,2.11125 2.9161,2.76265 2.88383,7.11875 -0.0353,4.77204 -1.71439,12.356 -2.71309,12.25472 -0.28818,-0.0293 -2.58667,-1.68709 -5.10776,-3.68413 z m -122.9304,0.13144 c -1.94813,-0.94274 -4.73749,-3.05019 -6.19859,-4.68323 -2.61058,-2.91777 -2.75615,-2.95834 -8.4124,-2.34414 -4.98221,0.54101 -13.73543,2.53146 -27.00821,6.14159 -5.98115,1.62685 -15.27775,0.4137 -21.74161,-2.83715 -6.89377,-3.46706 -7.68953,-4.12409 -10.80107,-8.91818 -1.94555,-2.99759 -2.43517,-4.80323 -2.43517,-8.9806 0,-6.46923 1.25511,-9.49555 4.52526,-10.91134 2.58129,-1.11755 6.52676,-0.58312 8.53114,1.15559 1.41594,1.22826 1.45165,8.3424 0.0492,9.80823 -1.22962,1.28523 -4.25047,1.49733 -4.25047,0.29844 0,-0.44672 0.61787,-1.34819 1.37305,-2.00327 2.20467,-1.91244 1.25126,-5.79314 -1.68711,-6.86713 -2.17297,-0.79423 -2.76348,-0.6198 -4.2062,1.24244 -2.51508,3.24643 -2.15389,8.51306 0.98213,14.32104 2.13021,3.94516 3.61936,5.43434 7.47126,7.47134 5.65842,2.99234 13.60233,3.37389 21.33378,1.02467 6.07796,-1.8468 13.3715,-7.88027 15.52862,-12.84582 2.37501,-5.46711 2.18886,-13.6139 -0.45796,-20.04211 -2.83652,-6.88897 -5.41744,-8.78865 -11.60499,-8.54185 l -4.86024,0.19386 1.3332,-2.69469 c 2.23511,-4.51764 6.18136,-6.8415 10.71157,-6.30779 4.93953,0.58193 7.76205,2.51614 10.65044,7.29854 3.35882,5.56128 4.79233,10.53064 4.79233,16.61291 0,5.58922 -2.48017,13.79465 -5.08247,16.81492 -2.45312,2.84714 -0.32538,2.97606 2.61159,0.15824 4.33859,-4.16258 6.24307,-6.70826 8.87172,-11.85868 3.07696,-6.02881 3.31966,-15.05751 0.61241,-22.7821 -0.98125,-2.7998 -1.99085,-5.73919 -2.24356,-6.53199 -0.2527,-0.79279 0.33258,-2.45879 1.30064,-3.70222 l 1.76011,-2.26076 1.91574,4.62776 c 4.03232,9.74077 2.87759,26.37281 -2.55077,36.73962 -3.70792,7.08119 -1.18696,6.82712 6.43449,-0.64848 2.4619,-2.41479 3.6401,-3.05306 4.12426,-2.23424 1.01072,1.70931 0.31059,2.72054 -5.39555,7.79301 -2.86323,2.54527 -5.22131,4.9922 -5.24018,5.43762 -0.0194,0.45739 1.21822,0.46921 2.84362,0.0271 5.91109,-1.60766 13.32359,-0.91018 18.50921,1.74162 2.6935,1.37739 5.63121,3.35202 6.52825,4.38805 1.41044,1.629 1.45938,2.05109 0.3619,3.12165 -3.61646,3.52775 -13.28808,4.3316 -18.97939,1.57748 z m 223.99745,0.0304 c -5.15084,-3.28311 -7.33253,-9.40456 -6.18998,-17.36806 0.81897,-5.70822 3.84049,-8.67421 8.83662,-8.67421 3.72214,0 5.80365,1.22824 5.80365,3.42455 0,0.71325 -1.05562,1.20322 -2.59227,1.20322 -6.77224,0 -8.47235,11.69053 -2.13875,14.70679 7.95771,3.7897 17.22734,-2.76139 17.07876,-12.07001 -0.0623,-3.90675 -2.43196,-10.07571 -5.10411,-13.2879 -4.56706,-5.49008 -16.88757,-8.01853 -25.16279,-5.16397 -3.01313,1.03938 -8.97585,6.82431 -11.10751,10.7763 -0.75006,1.39057 -1.21167,1.5499 -2.03194,0.70133 -0.82386,-0.85229 -0.63802,-1.84802 0.83037,-4.44929 2.37741,-4.21159 2.37994,-6.36633 0.0122,-10.37066 -1.40605,-2.3779 -1.77151,-4.15424 -1.45066,-7.0509 0.40242,-3.6328 3.87588,-10.68803 5.30464,-10.77465 1.16535,-0.0706 4.22419,7.22873 4.22419,10.08028 0,1.53382 -0.87212,4.66502 -1.93805,6.95821 -2.30359,4.95589 -1.77933,6.0108 1.66462,3.34945 6.28057,-4.85337 19.11209,-4.46009 27.09348,0.83042 5.94849,3.94299 8.81006,9.63138 9.3006,18.4883 0.42925,7.75028 -1.03072,12.30535 -5.26282,16.41988 -4.37631,4.25473 -12.39414,5.31516 -17.17024,2.27092 z m -381.39777,-6.67976 c -1.03994,-0.6331 -1.54965,-2.08511 -1.54965,-4.41451 0,-4.07983 1.25428,-5.69244 4.42757,-5.69244 3.05484,0 4.42758,1.5912 4.42758,5.1322 0,4.68063 -3.67639,7.18409 -7.3055,4.97475 z m 100.72736,-20.94632 c -2.69154,-0.67408 -7.54521,-5.83747 -9.38659,-9.98558 -3.04913,-6.8688 -1.6,-19.37622 3.15764,-27.25358 2.85549,-4.72792 7.96573,-9.17788 13.71543,-11.94329 3.84237,-1.84805 6.36551,-2.37182 11.5976,-2.40747 5.96992,-0.0406 7.39598,0.32073 13.30079,3.37079 3.63766,1.87901 7.50462,4.40732 8.59324,5.6185 l 1.97931,2.20214 -2.1618,2.12273 -2.1618,2.12273 -2.65499,-1.976 c -6.66666,-4.96172 -16.84369,-6.11065 -25.19571,-2.84447 -3.49815,1.368 -6.2377,3.45608 -10.21665,7.78709 -2.99024,3.25483 -5.45416,6.26629 -5.47537,6.69215 -0.0212,0.42585 -0.38923,2.64852 -0.81782,4.93926 -2.04639,10.93752 4.92321,21.2085 12.4236,18.30847 2.41033,-0.93195 3.45352,-2.33066 3.47299,-4.65656 0.0166,-1.98457 -2.02988,-2.11876 -3.5285,-0.23138 -1.51943,1.91357 -2.65655,1.73794 -2.65655,-0.4103 0,-2.16685 3.18009,-4.68025 5.92172,-4.68025 4.45886,0 4.85922,8.46341 0.5673,11.99209 -2.2167,1.8225 -6.23234,2.2952 -10.47384,1.23293 z m 62.79524,-4.30642 c -0.25493,-0.69437 0.33704,-2.88099 1.31548,-4.85916 2.55749,-5.17059 3.84977,-14.94898 2.83097,-21.4212 -0.46009,-2.92286 -2.79065,-10.05407 -5.17902,-15.84714 l -4.34251,-10.53284 -10.55701,-0.11102 c -11.78931,-0.12398 -15.77857,-1.40429 -21.91101,-7.0321 -3.86042,-3.54275 -3.46223,-4.63193 2.57426,-7.04152 5.24903,-2.09526 12.1787,-1.37698 20.9099,2.1674 l 6.81708,2.76736 0.5039,-2.42774 c 0.27715,-1.33525 0.58324,-4.39733 0.68019,-6.80462 0.15236,-3.78287 -0.20291,-4.78778 -2.61772,-7.40443 -3.50494,-3.79788 -4.67365,-7.00023 -4.67365,-12.80609 0,-3.13755 0.36145,-4.56751 1.15456,-4.56751 1.76751,0 6.61758,5.6981 7.29467,8.57011 0.33115,1.40471 0.96528,2.78862 1.40916,3.07536 0.44388,0.28674 2.80581,-1.35696 5.24873,-3.65266 4.83492,-4.54356 11.67191,-6.84961 16.81036,-5.66999 6.62803,1.52158 10.6826,8.9436 8.82494,16.15436 -1.19661,4.64477 -3.74757,6.51276 -8.89394,6.51276 -5.45376,0 -8.14499,-2.51439 -7.7669,-7.25651 0.3758,-4.71352 2.82641,-4.65242 3.20124,0.0798 0.21823,2.75511 0.70521,3.58012 2.37126,4.01717 2.23108,0.5853 5.49314,-0.17039 7.31616,-1.69483 2.57991,-2.15737 0.31001,-11.07198 -3.44299,-13.52174 -2.84335,-1.85599 -10.07282,-1.48993 -13.43215,0.68012 -4.17341,2.69592 -6.37449,5.5129 -8.61416,11.02451 -3.4342,8.45121 -1.51759,20.46891 5.81835,36.48279 1.56457,3.41534 3.09405,5.94904 3.39886,5.63046 0.30481,-0.3186 0.5542,-2.72639 0.5542,-5.35067 0,-8.1594 2.04457,-12.64608 7.79182,-17.09857 l 5.04815,-3.91091 0.71992,4.94611 c 0.39595,2.72036 0.53772,6.47502 0.31503,8.3437 -0.5033,4.22353 -4.42599,9.5929 -8.70777,11.91919 -3.97843,2.16147 -4.72026,4.36998 -6.04711,18.00314 -0.68131,7.00018 -1.65166,11.69926 -3.10578,15.04025 -2.20657,5.06982 -2.84396,5.70353 -3.61747,3.59666 z m 22.7606,-1.22857 c -2.99166,-2.88353 -4.64328,-7.69003 -2.64247,-7.69003 2.21712,0 10.59872,6.69274 10.31851,8.23937 -0.4726,2.60859 -4.71467,2.305 -7.67604,-0.54934 z M 91.829056,486.63548 c 0.999372,-6.52124 4.778367,-19.89039 5.349365,-18.92472 0.313436,0.53008 1.004311,4.33777 1.535276,8.46153 0.952593,7.39837 0.934261,7.54041 -1.383014,10.71589 -1.354624,1.8563 -3.128127,3.21813 -4.190966,3.21813 -1.633397,0 -1.78218,-0.394 -1.310661,-3.47083 z m 85.444254,-1.13706 c -4.18293,-1.31999 -4.55703,-1.90132 -2.61439,-4.06265 0.98691,-1.09801 2.61463,-3.93458 3.61719,-6.30348 2.37214,-5.6051 9.20051,-11.99356 14.74204,-13.79229 5.23628,-1.69967 7.75605,-5.15618 9.26498,-12.7093 1.36506,-6.83297 0.53387,-23.39338 -1.63772,-32.62951 -2.33479,-9.93021 -8.75729,-21.73367 -16.22988,-29.82775 -4.95017,-5.36188 -6.06106,-7.08777 -5.66171,-8.79607 l 0.49683,-2.12531 2.51331,1.87055 c 6.38492,4.75203 19.41568,22.33398 23.02898,31.07222 5.83057,14.10034 8.39704,33.85425 6.32384,48.67402 -1.10502,7.89901 -4.52438,20.49328 -6.84778,25.22193 -1.22793,2.49912 -1.37307,2.5511 -2.95235,1.05725 -1.6171,-1.52962 -1.5941,-1.69671 0.87155,-6.33055 1.39287,-2.61771 3.40692,-8.06791 4.47567,-12.11156 1.67441,-6.33523 1.87883,-8.89549 1.47803,-18.51107 -0.53972,-12.94819 -0.35833,-11.62175 -1.58932,-11.62175 -0.54482,0 -0.73265,0.67444 -0.42283,1.51829 0.73989,2.01532 -1.79927,17.37623 -4.46467,27.00944 -3.93003,14.20385 -7.65216,19.70392 -14.84543,21.93669 -4.84947,1.50526 -6.05278,1.56334 -9.54634,0.4609 z m 342.84638,-0.80198 c 0,-1.68037 3.3753,-3.84567 5.99469,-3.84567 3.38269,0 4.58168,1.70001 2.38375,3.37985 -1.78194,1.36189 -8.37844,1.72864 -8.37844,0.46582 z m -164.82221,-5.18443 c -2.43488,-1.44412 -3.77314,-3.80368 -2.9484,-5.19849 0.26566,-0.44928 2.04165,-1.25555 3.94665,-1.7917 4.24476,-1.19468 10.44346,0.20594 13.32358,3.01051 l 1.95661,1.90527 -2.41003,1.31984 c -3.63955,1.99317 -11.09599,2.39887 -13.86841,0.75457 z m -202.20167,-6.02818 c -0.68361,-1.15612 5.33335,-8.10354 8.50109,-9.81572 1.35175,-0.73062 3.31769,-1.32841 4.36874,-1.32841 1.63953,0 1.82595,0.36158 1.31228,2.54528 -0.95107,4.04315 -3.03796,6.76219 -6.27507,8.1759 -3.46343,1.51254 -7.14629,1.70953 -7.90704,0.42295 z m -46.71082,-8.00202 c -3.34095,-1.83563 -4.35172,-4.25765 -3.71242,-8.8957 l 0.54649,-3.96472 -3.355164,3.59445 c -9.512926,10.19137 -24.077427,10.42417 -30.082837,0.48086 -2.02583,-3.35422 -2.30066,-4.65036 -1.97718,-9.32461 0.33338,-4.81739 0.76559,-5.84621 3.83729,-9.13415 2.02663,-2.1693 4.88479,-4.10584 6.89479,-4.67154 3.03755,-0.85492 3.81008,-0.70556 6.70391,1.29607 2.050608,1.41839 3.609853,3.42642 4.1798,5.38286 1.697068,5.82547 -1.631688,12.41592 -5.93795,11.75628 -2.82617,-0.43292 -3.0191,-2.11225 -0.3867,-3.36588 2.424007,-1.15439 2.983679,-4.39554 1.32005,-7.6446 -0.699719,-1.36655 -1.86852,-1.79026 -4.93845,-1.79026 -3.26444,0 -4.50921,0.50946 -6.61021,2.70547 -2.19367,2.29285 -2.58843,3.43559 -2.58843,7.49293 0,6.40938 2.18648,9.58725 7.57145,11.00451 4.85843,1.27868 8.983821,0.62873 15.189691,-2.39312 5.317389,-2.58922 8.6744,-6.34127 9.93159,-11.10032 0.72792,-2.7555 0.50153,-4.47862 -1.29424,-9.85091 -1.7613,-5.26916 -2.173899,-8.29019 -2.162926,-15.83681 0.0074,-5.12907 0.390206,-9.9483 0.850546,-10.7094 1.44043,-2.38149 3.50364,1.67026 3.5325,6.93715 0.0422,7.70584 3.33846,17.64127 6.9534,20.95874 2.76497,2.53744 3.55011,2.79507 7.16786,2.35204 2.23452,-0.27364 4.95935,-0.78522 6.05517,-1.13685 1.81954,-0.58386 1.99241,-0.33965 1.99241,2.81462 0,2.75436 -0.61763,4.04524 -3.04934,6.37331 l -3.04934,2.91938 2.82796,1.96222 c 3.39145,2.35321 11.36146,4.41931 14.18764,3.67792 4.16309,-1.09212 9.54337,-6.16609 11.72026,-11.053 5.46707,-12.2731 -0.098,-25.62895 -10.679,-25.62895 -2.24053,0 -3.85955,0.70659 -5.46574,2.3854 -4.51613,4.72033 -5.03929,-2.42526 -0.58286,-7.96088 2.74327,-3.4076 6.08765,-3.59494 12.72304,-0.71271 l 4.70056,2.04179 1.83752,-2.69226 c 3.85007,-5.64097 5.59465,-6.94464 9.29333,-6.94464 4.11236,0 8.8629,3.70125 10.69981,8.33644 1.58668,4.0038 0.69892,11.70388 -1.63001,14.13813 -2.74857,2.87283 -7.88713,2.51365 -10.5634,-0.73837 -1.74055,-2.11499 -1.96743,-3.12544 -1.47399,-6.56466 0.52821,-3.68162 0.41166,-4.0649 -1.23612,-4.0649 -1.00062,0 -2.07537,0.43304 -2.38832,0.96231 -0.31296,0.52928 -0.63534,6.25614 -0.7164,12.72636 -0.13909,11.102 -0.30343,12.10827 -2.92017,17.88062 -4.17377,9.20704 -11.32216,14.03122 -20.84957,14.07058 -4.16617,0.0172 -5.89093,-0.52051 -10.07652,-3.14154 -2.77748,-1.73927 -6.692,-5.14048 -8.69894,-7.55823 -2.00693,-2.41776 -3.94783,-4.39613 -4.31311,-4.39638 -1.40634,-9.3e-4 -0.56083,2.32484 1.76931,4.86696 1.9724,2.15181 2.40498,3.42379 2.28317,6.71351 -0.2222,6.00097 -1.03035,7.09271 -4.03021,5.44448 z m 410.19264,-0.10794 c -2.17411,-0.8857 -11.39297,-8.5301 -12.2761,-10.17952 -0.70578,-1.31818 -1.23687,-1.06126 -3.89441,1.88395 -3.37671,3.74225 -5.96737,4.44531 -5.96737,1.61944 0,-3.39263 1.82603,-6.79286 5.68963,-10.59458 3.44602,-3.39083 3.91902,-4.35829 4.28348,-8.76116 l 0.40969,-4.94941 -2.75623,0.76901 c -8.46305,2.36123 -20.40546,-0.15277 -23.33746,-4.91279 -1.17564,-1.90864 -1.02224,-2.11548 3.03008,-4.08564 5.9694,-2.90219 17.30237,-2.92655 21.97135,-0.0472 2.4807,1.52983 3.6073,1.76337 4.93193,1.02239 0.94425,-0.52818 1.71681,-1.31545 1.71681,-1.74947 0,-0.43402 1.3067,-2.81423 2.90378,-5.28937 1.59708,-2.47512 3.40603,-5.54148 4.01987,-6.81412 0.61386,-1.27263 1.69218,-3.35513 2.39626,-4.62776 0.70409,-1.27264 1.28603,-3.43468 1.29322,-4.80453 0.007,-1.36986 0.44625,-2.77049 0.97572,-3.11252 1.98934,-1.28506 2.5297,1.11336 1.52414,6.76498 -1.10527,6.21199 -0.87681,7.12308 3.27873,13.07539 3.27824,4.69567 4.21314,9.13749 2.62402,12.46701 -0.718,1.50431 -1.30544,3.47954 -1.30544,4.3894 0,3.10138 -1.56868,2.67511 -4.61484,-1.254 -4.11589,-5.30894 -4.42805,-6.53062 -3.31217,-12.96259 1.44207,-8.31213 0.0231,-8.31954 -5.17657,-0.027 -6.9994,11.16281 -8.39719,15.10907 -7.99392,22.56864 0.43676,8.07891 3.71927,13.55187 9.36244,15.61002 3.3151,1.20908 4.01014,1.18815 6.80487,-0.20483 5.9202,-2.95079 4.98675,-11.32287 -1.26245,-11.32287 -2.43068,0 -3.12031,0.42012 -3.50811,2.13713 -0.58953,2.61024 -2.15185,2.77721 -2.52953,0.27033 -0.41389,-2.74712 2.87042,-5.64689 6.39572,-5.64689 3.52504,0 7.60559,4.24216 7.60559,7.90682 0,2.99454 -2.45597,8.17694 -4.51073,9.51817 -2.03919,1.33108 -6.95461,2.08396 -8.772,1.34358 z m -115.78111,-4.57269 c -1.41211,-0.59557 -1.44428,-6.06859 -0.0443,-7.5319 0.58444,-0.61086 1.89943,-1.11066 2.9222,-1.11066 2.50606,0 3.98482,1.71736 3.98482,4.62776 0,3.89244 -2.99646,5.64541 -6.86274,4.0148 z m -47.75828,-11.48631 c -3.08301,-2.06417 -4.31287,-5.67568 -3.40464,-9.99777 0.69132,-3.2899 3.36609,-5.94971 7.98477,-7.94012 l 3.53277,-1.52243 -3.27756,-2.96266 c -6.59573,-5.96202 -8.94004,-20.37826 -5.07443,-31.2051 3.12071,-8.74051 1.97716,-18.9861 -2.31106,-20.70604 -2.02275,-0.81131 -5.9713,1.34485 -7.01728,3.83186 -0.48077,1.14313 -1.16409,2.0784 -1.51849,2.0784 -1.49788,0 -2.64958,-4.28388 -2.2679,-8.43567 0.45004,-4.89546 2.70474,-7.66568 7.09261,-8.71429 7.09716,-1.6961 12.1789,4.67826 12.1789,15.27679 0,5.57213 0.0753,5.76786 1.99241,5.17231 1.09582,-0.34043 3.4783,-0.85916 5.2944,-1.15275 6.025,-0.97397 10.28181,4.06303 9.08218,10.74678 l -0.57331,3.19412 -3.08327,-3.41588 c -3.70334,-4.10282 -7.40979,-4.50899 -12.16765,-1.33338 -9.0426,6.03542 -8.31781,21.69539 1.52046,32.85191 4.30158,4.87796 8.16153,6.12063 15.30924,4.92868 2.86339,-0.47751 5.98787,-0.99969 6.94328,-1.16041 1.04114,-0.17514 1.85564,0.30377 2.03298,1.19534 0.49348,2.48096 -6.52366,3.96198 -15.26111,3.22097 -11.38222,-0.96531 -14.36731,1.34632 -12.27719,9.50737 0.30759,1.20102 1.68989,2.68057 3.07179,3.28788 2.37706,1.04468 2.43903,1.21388 1.14946,3.13825 -1.72339,2.57173 -5.2158,2.61693 -8.95136,0.11584 z m -125.5311,-4.76662 c -0.75816,-1.13137 -1.37848,-2.7047 -1.37848,-3.49627 0,-5.11611 6.68666,-7.5348 9.30102,-3.36437 3.39441,5.41475 -4.37995,12.14708 -7.92254,6.86064 z m 231.512,0.45687 c -4.7362,-1.88443 -2.68762,-8.58091 2.62506,-8.58091 3.83178,0 4.85708,4.21176 1.80252,7.40443 -1.85183,1.93556 -2.25229,2.04197 -4.42758,1.17648 z M 182.19045,442.4024 c -1.92805,-3.07563 -0.5054,-6.90374 2.56565,-6.90374 2.69183,0 4.18091,1.64823 4.18091,4.62776 0,4.82547 -4.24962,6.25909 -6.74656,2.27598 z M 56.774479,438.56299 c -1.89943,-0.51888 -3.02043,-4.6653 -1.80552,-6.67842 0.49007,-0.81205 2.04306,-1.47646 3.45108,-1.47646 2.25158,0 2.59399,0.36972 2.84183,3.06851 0.25843,2.81406 -1.0405,5.87619 -2.38263,5.61689 -0.30564,-0.059 -1.25278,-0.29779 -2.10476,-0.53052 z M 410.97995,430.3415 c -1.64192,-0.93103 -2.43517,-2.12495 -2.43517,-3.66516 0,-1.89344 0.43109,-2.28432 2.5193,-2.28432 2.45299,0 5.45034,-2.39794 5.45034,-4.36037 0,-0.53635 -1.6443,-2.69381 -3.65399,-4.79437 -3.52745,-3.68695 -3.6387,-3.98529 -3.21302,-8.6158 0.34206,-3.72082 0.97404,-5.27587 2.81785,-6.93356 3.51686,-3.16186 8.46355,-2.90514 12.32626,0.63971 5.05283,4.63703 8.52398,3.34512 8.57953,-3.19316 l 0.0319,-3.74849 2.17754,2.77666 c 2.63148,3.35549 2.76552,6.75433 0.4532,11.49178 -1.22077,2.5011 -1.57894,4.544 -1.21154,6.91039 0.48516,3.12481 0.32782,3.43016 -2.25168,4.37004 -2.01365,0.73371 -2.77328,1.58844 -2.77328,3.1205 0,2.86376 -2.13707,4.50819 -5.08662,3.91406 -1.96458,-0.39573 -2.98139,0.1243 -5.21623,2.66774 -3.03323,3.45206 -4.80626,3.80698 -8.51435,1.70435 z m -21.28725,-5.25532 c -0.2221,-0.63632 0.28177,-1.98994 1.11974,-3.00805 3.96352,-4.81555 5.30692,-12.74439 3.45898,-20.41509 -1.32012,-5.4797 -2.55143,-5.21303 -2.55143,0.55257 0,7.78664 -3.84701,13.82692 -10.27803,16.13777 -3.69538,1.32785 -7.52211,0.5993 -10.21083,-1.94398 -2.43507,-2.30335 -2.0276,-3.12402 1.5511,-3.12402 11.88014,0 18.29858,-15.84469 11.86749,-29.29635 -2.77205,-5.79818 -11.0025,-15.08625 -15.52183,-17.5164 -4.3708,-2.35029 -8.38931,-5.42198 -8.38132,-6.40657 0.004,-0.50906 0.35536,-1.49958 0.78051,-2.20117 0.63122,-1.04162 1.68636,-0.80855 5.75212,1.27058 5.47711,2.80086 7.54041,2.74318 14.34059,-0.40087 4.93947,-2.28375 6.22813,-5.26019 4.60192,-10.62909 -0.99431,-3.28269 -1.51765,-3.8116 -4.02101,-4.06389 -3.41617,-0.34427 -3.56777,-1.02381 -0.82844,-3.71363 2.21387,-2.17384 8.21265,-2.77656 11.17001,-1.12226 3.47442,1.94352 4.40423,9.30504 2.19642,17.3895 -1.44463,5.28988 9.26564,0.42341 15.71599,-7.14094 5.75427,-6.74805 7.83077,-11.4397 7.83077,-17.69289 0,-6.28115 -1.87966,-10.02896 -6.93319,-13.8239 -3.61377,-2.71376 -3.76043,-2.99522 -2.55454,-4.90242 0.95157,-1.50498 2.33081,-2.09563 5.38353,-2.30545 4.83661,-0.33244 5.04173,-1.10156 1.96948,-7.38448 -5.81465,-11.89126 -16.18595,-15.0448 -26.39845,-8.02683 -4.78885,3.29086 -6.26657,6.86875 -5.82572,14.10524 0.33534,5.50458 0.62875,6.24233 3.6234,9.11082 2.4323,2.32982 4.06277,3.12121 6.43048,3.12121 2.87448,0 3.11648,0.19532 2.58014,2.0825 -1.24834,4.39246 -5.69162,5.59644 -11.42046,3.09455 -2.32135,-1.01378 -3.57238,-2.58982 -5.65385,-7.12274 l -2.67291,-5.8209 -4.38696,0.24337 c -9.14211,0.50716 -14.21262,-4.76419 -13.19776,-13.72052 0.66325,-5.85335 2.26555,-9.18806 5.16881,-10.75727 5.15848,-2.78816 10.69719,-0.7883 11.83831,4.27447 0.69173,3.06895 -2.21882,7.01233 -5.77893,7.82962 -3.18325,0.73078 -3.59231,3.56789 -0.74413,5.16111 3.47278,1.94262 8.14011,-0.34735 11.34388,-5.56572 7.48097,-12.18521 17.5498,-16.50391 28.74387,-12.32881 6.52711,2.43446 13.27277,9.57595 15.08517,15.97038 4.15876,14.67283 1.59464,30.69475 -6.89176,43.06304 -2.04283,2.97727 -8.83061,9.6935 -9.79677,9.6935 -0.31669,0 -2.06156,1.01344 -3.87749,2.25209 -4.17484,2.84765 -12.65969,5.13322 -19.36879,5.2174 -9.47224,0.11883 -9.55943,0.50359 -1.99621,8.80941 4.34576,4.77244 8.18973,10.22379 11.03738,15.65269 4.36076,8.31356 4.36919,8.34641 4.27345,16.65997 -0.0996,8.64769 -0.87834,11.80727 -4.1617,16.88502 -2.02019,3.12423 -3.71912,3.83962 -4.41103,1.85743 z m -156.68617,-2.09389 c -4.41264,-3.13403 -7.76339,-9.2825 -7.76339,-14.24546 0,-4.57261 0.97435,-6.84199 4.70754,-10.96447 3.08724,-3.40917 6.94856,-3.99598 9.62645,-1.46294 1.56809,1.48326 1.49999,1.62333 -1.70131,3.49959 -4.51244,2.64472 -6.06968,6.14746 -4.76168,10.71057 1.04014,3.62865 4.93705,6.45801 8.89468,6.45801 4.75426,0 11.43193,-4.54574 13.86873,-9.44096 2.86423,-5.75386 0.39813,-15.41999 -5.34601,-20.95414 -4.6474,-4.47751 -6.84217,-5.23871 -15.10497,-5.23871 -8.93695,0 -16.38835,3.12511 -22.20115,9.31114 -2.46997,2.62855 -5.00882,6.08623 -5.6419,7.68373 -0.63308,1.59749 -1.5012,2.90453 -1.92914,2.90453 -1.64301,0 -0.66544,-4.79132 1.84906,-9.06266 5.20531,-8.84221 15.81985,-14.34121 27.92313,-14.46594 6.06156,-0.0625 7.81766,0.30349 12.16596,2.53528 14.77886,7.58538 18.576,28.54137 7.19345,39.69982 -5.68572,5.57377 -16.15006,7.03085 -21.77945,3.03261 z M 60.094559,415.28301 c -6.83305,-3.38259 -9.29791,-7.92843 -9.29791,-17.1478 0,-10.78167 7.70063,-22.19356 16.90357,-25.05012 6.31615,-1.9605 14.60235,-1.94848 15.32587,0.0222 0.927598,2.52659 -0.0955,2.89503 -6.79204,2.44585 -7.80689,-0.52367 -11.96882,1.26569 -16.87317,7.25439 -4.73492,5.78179 -6.17649,9.65426 -6.06814,16.30065 0.16577,10.16741 3.54641,13.82885 12.33374,13.35818 1.09442,-0.0586 3.58493,-1.61278 5.53447,-3.45371 2.91852,-2.75591 3.54461,-3.95121 3.54461,-6.76711 0,-3.56151 -2.53117,-7.47125 -4.83689,-7.47125 -0.67421,0 -2.46868,1.09307 -3.98772,2.42905 -1.51904,1.33598 -2.96999,2.21153 -3.22435,1.94569 -0.25435,-0.26586 -0.19053,-1.99838 0.14182,-3.85005 0.69653,-3.8807 3.80902,-6.07801 8.6095,-6.07801 4.68417,0 8.61184,5.35589 8.60935,11.73996 -0.002,4.8173 -2.39724,9.29563 -6.67888,12.4867 -4.70567,3.50711 -8.73796,4.06591 -13.24383,1.83536 z m 402.342891,-5.24677 c -5.6456,-1.88958 -12.42373,-8.47435 -14.9675,-14.54053 -4.12853,-9.84534 -2.24348,-26.5052 3.8151,-33.71754 5.39531,-6.42275 14.65508,-8.83525 22.94108,-5.97698 3.71912,1.28292 10.13456,8.08671 10.99196,11.65734 1.74184,7.2538 -1.43616,17.23082 -5.69956,17.89323 -1.74269,0.27077 -1.90521,-0.12032 -1.92301,-4.62777 -0.0222,-5.62406 -2.48998,-12.14797 -5.16015,-13.64161 -2.63715,-1.47517 -9.18617,-1.21541 -11.46766,0.45485 -3.29328,2.41102 -7.26166,11.69842 -7.26166,16.99488 0,9.48104 4.91986,18.28726 12.46426,22.31014 4.57356,2.43876 12.56614,2.44196 16.91311,0.006 2.71034,-1.51834 3.30731,-1.59378 3.71985,-0.47008 1.44603,3.93865 -15.79382,6.52634 -24.36582,3.65728 z m -347.049,-5.02498 c -1.82525,-2.0055 -3.78686,-5.12924 -4.35913,-6.94165 -1.27684,-4.04379 -2.21074,-4.16539 -3.45017,-0.44922 -0.98285,2.9469 -2.76607,2.94208 -2.76607,-0.007 0,-2.5183 3.79181,-9.09771 8.81389,-15.29352 2.45785,-3.03229 4.46882,-5.99833 4.46882,-6.59119 0,-0.71636 -3.34148,-1.30408 -9.96204,-1.75217 -6.21084,-0.42036 -11.629237,-1.33631 -14.389615,-2.43249 -2.435167,-0.96704 -4.953502,-1.75846 -5.596301,-1.75872 -1.496439,-5.9e-4 -8.996825,-5.3646 -10.951905,-7.8324 -2.99842,-3.78478 -5.41612,-13.92503 -4.94857,-20.75515 0.49957,-7.29785 1.16272,-9.01733 2.89736,-7.51261 0.89277,0.77443 0.95612,1.81063 0.2696,4.40943 -1.4478,5.48059 -0.42319,11.58668 2.92057,17.40492 2.67435,4.65346 8.469688,10.27777 9.490684,9.21061 0.209396,-0.21886 -0.901722,-2.39445 -2.469151,-4.83464 -2.751923,-4.28422 -2.835403,-4.69443 -2.428943,-11.93574 0.46432,-8.27229 1.92126,-11.61314 6.033846,-13.83599 2.832029,-1.53072 6.111082,-1.77112 6.111082,-0.44804 0,0.49115 -0.830698,1.35767 -1.845996,1.92561 -6.576512,3.67878 -5.193857,22.76135 2.117248,29.22097 5.552341,4.90569 9.815801,6.19489 18.706091,5.65641 4.41698,-0.26754 9.76052,-1.14819 11.87454,-1.957 4.88676,-1.86965 19.05668,-4.27016 25.20616,-4.27016 11.3186,0 23.13506,4.61077 22.53404,8.79275 -0.32394,2.25392 -0.23087,2.27303 -9.44098,-1.93942 -7.23984,-3.31131 -7.66879,-3.39144 -15.49651,-2.89481 -9.02653,0.57269 -17.72884,3.20688 -23.10433,6.99368 -4.05601,2.85728 -7.52688,9.22873 -7.52688,13.81704 0,4.18584 2.23204,8.40405 4.80397,9.07874 2.23261,0.58569 5.82222,-0.90123 5.82222,-2.41173 0,-0.49114 0.34498,-0.89299 0.76661,-0.89299 0.9537,0 -0.09,6.22945 -1.50394,8.97668 -3.0011,5.83089 -7.98272,6.32932 -12.5962,1.26027 z m 376.07489,-0.69871 c -1.04474,-1.09197 -0.58352,-1.94471 3.32572,-6.14888 3.91703,-4.21257 8.35902,-12.77152 10.17336,-19.60233 1.60341,-6.03671 1.23113,-20.75674 -0.68795,-27.20156 -1.83628,-6.16677 -9.06133,-19.01486 -11.16806,-19.85984 -1.94819,-0.78139 -1.62014,-3.36547 0.42724,-3.36547 2.01669,0 7.96416,7.43524 11.06147,13.82851 2.86926,5.92254 4.89839,13.54732 4.89839,18.40647 0,3.62969 0.49177,4.68191 4.0424,8.64946 2.22331,2.48437 5.20367,7.11086 6.62302,10.28107 3.04925,6.8107 4.84258,15.36977 3.51179,16.76074 -1.38737,1.45009 -2.51981,-0.31281 -3.98955,-6.21069 -1.65269,-6.63198 -4.9104,-13.39221 -7.82067,-16.22903 -2.23112,-2.17483 -4.13802,-2.04733 -4.13802,0.27669 0,1.39146 -2.45283,10.20574 -3.62025,13.00941 -0.42392,1.01811 -1.19243,2.89236 -1.70778,4.16499 -2.60633,6.43624 -9.47783,14.75944 -10.93111,13.24046 z m -147.6387,-5.16965 c -3.84022,-2.70494 -5.31211,-5.74774 -5.02336,-10.38469 0.1904,-3.05736 0.58101,-3.75419 2.24258,-4.00066 1.67941,-0.24911 2.38312,0.54878 4.25679,4.82647 2.51418,5.73997 3.72875,11.66916 2.3904,11.66916 -0.47874,0 -2.21862,-0.94963 -3.86641,-2.11028 z M 89.574906,396.94185 c -0.592841,-5.30771 2.355125,-10.38212 8.114876,-13.96835 2.657138,-1.65442 5.626998,-3.00805 6.599698,-3.00805 1.51925,0 1.32226,0.48923 -1.39755,3.47083 -1.74135,1.90895 -3.879963,5.47984 -4.752478,7.93531 -3.20667,9.02433 -7.842014,12.0391 -8.564546,5.57026 z M 312.42613,394.3536 c -1.35611,-1.41742 -2.17354,-3.33188 -2.17354,-5.09055 0,-3.30174 -0.71963,-3.48679 -3.77877,-0.97166 -1.23562,1.01589 -4.77608,2.52832 -7.86767,3.36099 -4.68427,1.26161 -6.67775,1.34363 -11.96112,0.49212 -17.94953,-2.8929 -29.75285,-15.56665 -29.87529,-32.07844 -0.0737,-9.93205 3.77738,-16.10114 13.08878,-20.96732 2.00486,-1.04776 5.13219,-3.39565 6.94963,-5.21756 1.81744,-1.82191 3.51052,-3.09713 3.76243,-2.83385 0.25189,0.26329 0.82191,2.51477 1.26671,5.0033 0.44479,2.48852 1.25693,4.68075 1.80475,4.87161 2.5679,0.89467 6.25931,5.24137 7.62469,8.97819 3.29963,9.03061 -0.94748,19.13213 -8.28408,19.70322 -4.36276,0.33961 -8.72835,-1.8027 -10.10392,-4.95826 -1.22489,-2.80988 -0.30416,-3.95378 1.98152,-2.46181 4.02848,2.62958 10.60585,0.0217 10.59298,-4.20002 -0.0113,-3.6734 -1.97147,-8.59587 -4.12979,-10.37037 -4.72853,-3.88764 -13.97951,-1.35781 -16.8703,4.61345 -1.64774,3.40359 -1.32921,10.07173 0.70609,14.78107 2.54716,5.89372 7.35961,10.73625 14.5431,14.63399 5.49715,2.98273 6.95014,3.36553 12.83996,3.38275 8.54069,0.025 14.98041,-2.93951 21.26273,-9.78811 13.71568,-14.95199 12.44276,-35.61175 -3.23945,-52.57698 l -5.62719,-6.08756 2.69493,-2.6325 c 1.4822,-1.44788 3.23347,-2.4165 3.89169,-2.1525 3.56835,1.43122 11.78369,16.71558 13.51298,25.14042 2.63926,12.85815 0.0307,28.88785 -6.21142,38.1702 -1.79348,2.66698 -3.26088,5.86746 -3.26088,7.11217 0,5.71886 3.32984,9.2622 6.17502,6.57094 2.32244,-2.19682 2.95551,-1.69181 2.39609,1.91138 -0.71928,4.63283 -2.04839,5.9335 -6.06324,5.9335 -2.50764,0 -4.07844,-0.63189 -5.64742,-2.27181 z m -163.77877,-2.12456 c 0.34844,-0.89085 0.99103,-2.91091 1.42798,-4.48902 1.33798,-4.83235 6.71061,-8.34592 11.0294,-7.21297 2.90381,0.76177 2.71336,2.12235 -0.91773,6.55627 -4.44441,5.42706 -13.17189,9.31879 -11.53965,5.14572 z M 395.4214,376.35331 c -6.80182,-2.45539 -7.26504,-3.42215 -1.95469,-4.07952 2.47466,-0.30634 6.86522,-1.45861 9.75678,-2.5606 6.19133,-2.35954 7.97783,-1.95063 7.97783,1.82606 0,6.03894 -6.7133,8.08701 -15.77992,4.81406 z m 126.50924,-5.89495 c -2.77281,-1.46664 -7.91968,-10.48463 -8.64305,-15.14377 l -0.55502,-3.57483 3.02169,3.15831 c 1.66194,1.73708 5.71493,5.20579 9.00666,7.70824 3.29172,2.50246 5.98496,5.05795 5.98496,5.67887 0,3.1815 -4.7125,4.34325 -8.81524,2.17318 z m -32.29797,-6.7562 c -2.69047,-2.81212 -0.7405,-7.80109 3.04909,-7.80109 2.07348,0 4.44799,3.40874 3.78124,5.42818 -0.61001,1.84759 -2.85652,3.82735 -4.34303,3.82735 -0.60267,0 -1.72197,-0.6545 -2.4873,-1.45444 z m -270.22688,-2.55365 c -4.66515,-1.39361 -6.79626,-3.27732 -13.12802,-11.60403 -5.96828,-7.84871 -9.66256,-10.03978 -22.30379,-13.22828 -4.33232,-1.09275 -8.37504,-2.11809 -8.98383,-2.27856 -0.6088,-0.16047 -1.1069,-1.13782 -1.1069,-2.17192 0,-1.63584 0.56784,-1.88015 4.36993,-1.88015 5.55836,0 8.60731,-1.21747 12.31108,-4.91592 3.90325,-3.89765 6.11057,-8.54702 6.85958,-14.44863 0.44706,-3.52252 1.14445,-5.18869 2.58456,-6.17496 2.49601,-1.70939 6.22275,-0.42795 7.09334,2.43907 1.55921,5.13477 -2.27028,15.92977 -7.78438,21.9435 -2.58204,2.81601 -2.63559,3.00805 -0.83864,3.00805 3.34932,0 10.87362,-4.0941 24.55064,-13.35845 16.68035,-11.29869 28.96517,-17.68064 37.63439,-19.551 7.99607,-1.72514 21.90256,-1.88431 27.93638,-0.31976 5.49683,1.42531 11.92332,4.23834 11.87581,5.19832 -0.0198,0.39989 -1.17745,2.12177 -2.57257,3.8264 l -2.53659,3.09934 -5.61844,-2.63656 c -5.35447,-2.51269 -6.22172,-2.63534 -18.45841,-2.61055 -14.45314,0.0292 -17.56883,0.74886 -32.12891,7.4203 -7.85148,3.59755 -21.88751,11.9466 -21.88751,13.01936 0,0.23911 4.48292,0.15763 9.96204,-0.18109 8.70377,-0.53807 10.76288,-0.36566 16.3024,1.36499 4.89692,1.52989 6.98192,2.74459 9.15847,5.33562 2.58108,3.07261 2.76684,3.71208 2.2086,7.60303 -0.60184,4.1948 -3.32482,9.37556 -4.92775,9.37556 -0.45387,0 -0.83397,-1.14537 -0.84466,-2.54527 -0.0317,-4.15367 -3.17215,-10.21532 -6.34906,-12.25504 -6.69373,-4.29766 -11.39885,-5.09635 -22.92623,-3.89169 -5.83954,0.61025 -12.04632,1.73361 -13.79284,2.49635 -1.74654,0.76274 -3.95001,1.3868 -4.89662,1.3868 -0.94661,0 -2.56758,0.4735 -3.60217,1.05223 -1.75888,0.98389 -1.56817,1.22153 2.93615,3.65855 3.77919,2.04471 6.05747,2.61768 10.57306,2.65902 9.79915,0.0898 18.66847,5.94197 22.26153,14.68883 0.90606,2.20568 1.64738,4.3923 1.64738,4.85915 0,1.19443 -11.22143,0.91882 -15.57802,-0.38261 z m -89.92894,-4.3147 c -1.77646,-0.99286 -4.60406,-3.48314 -6.28355,-5.53397 -1.67948,-2.05081 -3.30753,-3.72875 -3.61788,-3.72875 -0.31035,0 -1.54871,2.03051 -2.7519,4.51226 -2.30293,4.75011 -3.52263,5.66882 -7.52599,5.66882 -2.76761,0 -7.141,-3.72173 -7.141,-6.07695 0,-1.20833 0.61626,-1.44293 2.87792,-1.09559 6.37257,0.97867 9.9631,-3.46828 9.95973,-12.33532 -0.002,-5.0978 -0.40057,-6.71636 -2.45224,-9.95682 -7.43673,-11.74578 -21.20647,-14.34842 -29.242651,-5.52722 -2.21369,2.42995 -3.84154,3.49616 -4.76949,3.12398 -1.28126,-0.51389 -1.27764,-0.71649 0.04,-2.23834 2.22104,-2.56518 1.80993,-3.34822 -2.99214,-5.69908 -4.28784,-2.09912 -4.5397,-2.11981 -7.3055,-0.5999 -1.5755,0.86579 -4.21854,2.60592 -5.87343,3.86697 -4.50814,3.43526 -8.64072,3.09473 -13.61562,-1.12196 l -4.02878,-3.41475 3.09922,-3.95321 c 3.7155,-4.73929 5.21526,-5.33081 11.45122,-4.51646 4.92265,0.64286 5.96718,-0.0996 3.34285,-2.37607 -2.26002,-1.96046 -5.95075,-10.89932 -6.02637,-14.59572 -0.10845,-5.30144 1.56882,-4.48298 3.08784,1.50677 0.76209,3.00502 2.2946,7.00095 3.40558,8.87983 3.5127,5.94066 15.95782,15.40549 20.25636,15.40549 2.566011,0 5.502729,-3.8845 5.502729,-7.27865 0,-5.55909 -4.154185,-10.96284 -6.523779,-8.48609 -2.94198,3.07499 -3.21148,-2.49921 -0.29233,-6.04636 1.824956,-2.21757 2.429786,-2.40871 5.76073,-1.8205 2.281937,0.40296 4.233651,1.42117 5.045081,2.63204 1.702374,2.54037 1.699831,9.93625 -0.0049,14.20067 -0.73055,1.82752 -1.328273,3.48013 -1.328273,3.67249 0,0.19236 1.916231,0.34974 4.258291,0.34974 3.286148,0 5.459342,0.74446 9.519292,3.26097 6.85312,4.24782 10.70076,8.95617 12.46229,15.2501 1.95836,6.99715 6.14545,13.56422 9.40584,14.75218 5.69295,2.07431 8.46546,-1.00153 7.20963,-7.99837 -0.58938,-3.2837 -0.57001,-3.30986 1.96223,-2.64914 5.38185,1.40427 7.69095,6.74943 5.78626,13.39417 -1.96523,6.85591 -7.24506,9.59764 -12.65732,6.57274 z m 32.62326,-1.96922 c 2.42143,-4.37084 8.83719,-9.14461 12.28998,-9.14461 2.76034,0 5.69177,1.92981 5.69177,3.74699 0,1.53927 -3.93079,3.47679 -9.29791,4.58299 -2.9222,0.60229 -6.19566,1.68167 -7.27435,2.39865 -2.90469,1.93063 -3.1832,1.61764 -1.40949,-1.58402 z m 185.73777,-3.56929 c -7.58514,-6.8553 -11.69887,-13.22015 -14.67021,-22.69806 -3.45159,-11.00978 -4.31926,-15.54603 -4.31926,-22.58139 0,-5.54173 0.22334,-6.41869 1.74022,-6.8333 2.19094,-0.59885 2.61546,0.81032 2.58775,8.58974 -0.0561,15.74674 10.06615,37.7975 19.80232,43.13829 2.33565,1.28122 3.28763,4.33057 1.67682,5.37111 -0.41709,0.26944 -3.48502,-1.97445 -6.81764,-4.98639 z m -1.08752,-11.1374 c -3.39787,-2.16534 -4.50169,-4.44274 -2.75585,-5.68589 2.80534,-1.99758 16.73245,1.17766 16.73245,3.81483 0,1.72345 -4.04039,3.73082 -7.50254,3.72746 -2.00369,-0.002 -4.84047,-0.81537 -6.47406,-1.8564 z m 92.78745,-2.01291 c 0,-6.4526 5.1733,-13.63716 10.90157,-15.13987 3.05682,-0.8019 3.03072,-0.0857 -0.29847,8.18812 -2.9097,7.2313 -5.19697,9.89897 -8.48741,9.89897 -1.78763,0 -2.11569,-0.45699 -2.11569,-2.94722 z m -316.83883,-7.3583 c -6.34116,-3.86335 -6.0277,-5.8996 0.90376,-5.87081 4.0635,0.0168 5.45003,0.44406 7.28292,2.24383 1.24514,1.22264 2.26389,3.19163 2.26389,4.37553 0,1.81566 -0.4504,2.14935 -2.87792,2.13213 -1.58286,-0.0112 -4.99055,-1.30754 -7.57265,-2.88068 z m 400.10841,1.11083 c -1.29012,-2.51962 -1.14074,-4.86791 0.46181,-7.25932 1.51866,-2.26622 5.53824,-2.78736 7.29957,-0.94639 1.61299,1.68592 1.28151,6.72537 -0.55676,8.46419 -2.22058,2.10046 -6.06743,1.96245 -7.20462,-0.25848 z m -364.49361,-5.06318 c -5.97859,-4.20827 -11.59974,-10.46494 -15.66114,-17.4318 -3.6416,-6.24673 -8.95572,-22.35192 -9.94414,-30.13708 -0.38937,-3.06677 -1.00422,-4.76972 -1.64051,-4.54368 -1.14069,0.40522 -1.19842,5.97205 -0.13875,13.37615 0.53383,3.72999 0.33802,5.82854 -0.84633,9.06993 -0.84748,2.31942 -1.99849,4.07159 -2.5578,3.89371 -1.66831,-0.5306 -5.00174,-8.2549 -5.00174,-11.59018 0,-1.70491 1.53291,-6.51052 3.40646,-10.67914 1.87355,-4.16863 3.89503,-9.13539 4.49218,-11.03725 0.59714,-1.90186 1.45513,-3.69657 1.90663,-3.98823 1.07372,-0.6936 1.06975,-8.75102 -0.004,-8.75102 -1.04473,0 -3.84991,4.22665 -5.25399,7.91635 -2.00473,5.26842 -9.56427,11.52027 -13.92985,11.52027 -2.41397,0 -0.90616,-7.89575 2.53327,-13.26569 2.77745,-4.33638 9.46294,-8.94222 12.99267,-8.95105 0.76116,-0.002 2.67274,-0.8248 4.24796,-1.82867 2.1536,-1.37246 2.99849,-2.69172 3.40611,-5.31847 0.7512,-4.84086 3.22475,-9.97214 4.80711,-9.97214 0.72599,0 1.18685,0.62475 1.02416,1.38833 -0.1627,0.76358 -0.89612,3.83639 -1.62983,6.82847 -2.45019,9.99192 0.37197,21.86369 5.19746,21.86369 2.71807,0 8.27917,3.39661 10.90854,6.66272 3.4921,4.33777 5.6087,10.0485 6.28624,16.9607 0.67743,6.91107 0.32821,7.13813 -6.97701,4.53644 -8.87894,-3.16215 -15.70339,-13.14662 -15.70339,-22.97478 0,-2.14815 -0.58505,-4.71421 -1.30011,-5.70235 -1.18545,-1.63817 -1.30259,-1.24987 -1.32827,4.40309 -0.0503,11.06684 5.25998,24.86228 13.17444,34.22572 4.28211,5.06609 13.81932,12.40308 18.75854,14.43098 1.9027,0.78121 3.45947,1.80051 3.45947,2.26514 0,1.53695 -7.50111,9.98016 -8.86698,9.98062 -0.73705,2.5e-4 -3.35469,-1.4176 -5.81698,-3.15078 z M 473.4657,322.7133 c -9.73707,-3.51677 -16.61088,-10.74331 -19.49402,-20.49433 -2.28294,-7.72107 -1.97862,-25.96959 0.52901,-31.72307 1.02405,-2.34958 1.86191,-4.61462 1.86191,-5.03343 0,-0.41881 0.9962,-2.29382 2.21379,-4.16667 4.23393,-6.5125 2.34858,-8.29509 -3.21591,-3.04061 -2.98668,2.82029 -4.02168,3.23943 -7.99916,3.23943 -4.93458,0 -11.54223,-3.2131 -12.61464,-6.13412 -0.61279,-1.66909 3.08117,-5.61194 7.78569,-8.31029 3.38444,-1.94119 9.4331,-0.99696 12.84695,2.00549 1.41197,1.24181 3.23323,2.25784 4.04725,2.25784 0.81402,0 2.26635,0.43985 3.2274,0.97743 1.4183,0.79338 2.28284,0.50497 4.59074,-1.53143 3.56251,-3.14342 9.23942,-5.88841 12.14128,-5.87075 1.72236,0.0105 1.16163,0.54535 -2.52592,2.40945 -9.79496,4.95147 -19.23034,17.91448 -21.24545,29.18851 -0.78104,4.36972 0.0259,17.30734 1.43175,22.95556 1.17395,4.71654 3.41192,8.86624 7.05418,13.08006 4.49048,5.19517 8.81016,7.28211 15.07291,7.28211 9.93855,0 16.17171,-6.99693 16.13236,-18.10911 -0.0321,-9.07211 -4.21745,-16.13636 -9.56024,-16.13636 -4.91762,0 -9.90165,5.54597 -9.90165,11.01806 0,3.0048 -1.66068,3.85055 -3.35439,1.7083 -1.57137,-1.98752 -2.14354,-7.64608 -1.15941,-11.46613 1.67465,-6.50033 7.51874,-10.7802 14.72016,-10.7802 3.70507,0 5.4608,0.61768 9.57532,3.36871 l 5.03835,3.36872 3.16309,-5.16828 c 4.57635,-7.47744 10.83127,-9.57313 19.22919,-6.44264 5.93124,2.211 9.50507,7.2059 10.7506,15.02539 0.75208,4.72166 -1.73574,11.37556 -5.11968,13.69305 -3.4861,2.38746 -9.21393,2.07999 -11.8105,-0.63398 -2.66066,-2.78096 -3.71006,-10.9796 -1.87087,-14.61655 1.31521,-2.6008 5.33147,-3.58274 7.38124,-1.80466 1.74298,1.51196 1.60056,2.73021 -0.3192,2.73021 -2.37024,0 -3.71917,1.86143 -3.71917,5.1322 0,5.69186 6.23123,7.93537 11.04582,3.97698 2.25359,-1.85282 2.40236,-2.38988 2.05447,-7.41686 -0.58651,-8.4749 -5.24588,-13.65208 -12.9863,-14.42946 -5.77966,-0.58046 -8.15353,0.10487 -11.12646,3.21223 -4.33954,4.53575 -5.19176,7.22444 -4.18446,13.20156 2.38208,14.13478 -3.57667,29.82382 -12.88973,33.93784 -3.91585,1.72981 -11.29228,1.52771 -16.7963,-0.4602 z M 104.84462,308.46646 c 0.0679,-2.48947 2.57036,-12.11392 3.36603,-12.94556 0.94743,-0.99028 4.08972,-0.62203 3.84495,0.45059 -0.0871,0.38179 -0.15841,2.31611 -0.15841,4.29849 0,2.69997 -0.6446,4.32559 -2.56906,6.47887 -2.67315,2.99101 -4.5377,3.70531 -4.48351,1.71761 z m 100.03166,-7.72948 c -6.85731,-1.91507 -13.55745,-6.81734 -16.50671,-12.0774 -2.12263,-3.78577 -2.44331,-5.34071 -2.44331,-11.84729 0,-5.80188 0.43459,-8.42791 1.92859,-11.65364 2.39514,-5.17141 8.96955,-12.03302 12.77363,-13.33164 3.46947,-1.18439 6.11626,-5.40964 4.46793,-7.13249 -0.85257,-0.89112 -1.51952,-0.70169 -3.1434,0.89284 -2.58251,2.53584 -5.03123,2.56809 -8.02625,0.10568 -3.20044,-2.63129 -3.29626,-8.84129 -0.19453,-12.60758 1.88403,-2.28768 2.73112,-2.59097 7.11451,-2.54731 4.34665,0.0433 5.32135,0.41068 7.70818,2.90543 2.89907,3.03015 3.44121,6.75121 2.07726,14.25771 -0.5628,3.09735 -0.38785,3.46329 2.51025,5.25051 1.71335,1.05662 3.84188,3.08032 4.73003,4.49711 2.15945,3.44474 2.12248,9.74394 -0.0721,12.27852 -2.69031,3.10717 -4.06895,2.47152 -4.06895,-1.87608 0,-9.99207 -9.9078,-15.27294 -17.9449,-9.56466 -9.31479,6.61576 -9.15273,22.83498 0.29969,29.99187 4.88726,3.70039 6.1335,3.6388 6.1335,-0.30313 0,-1.72529 0.75129,-4.10666 1.66953,-5.29191 1.37963,-1.78079 1.90175,-1.95359 3.00669,-0.99512 0.73542,0.63795 1.5904,2.57099 1.89996,4.29566 0.35437,1.97435 1.75258,4.22761 3.77515,6.08375 2.96268,2.71888 3.60368,2.9184 8.24821,2.56725 9.26536,-0.7005 17.99558,-6.9968 22.46665,-16.20313 0.7912,-1.62915 1.43855,-3.23191 1.43855,-3.5617 0,-0.32978 -2.39154,-0.3095 -5.31453,0.0451 -5.25036,0.63692 -5.3531,0.60439 -8.50936,-2.69458 -2.87916,-3.00933 -3.13697,-3.68137 -2.6091,-6.80132 1.12356,-6.6408 5.80681,-11.1038 5.80681,-5.5337 0,4.41663 2.50345,6.64634 6.56758,5.84943 3.66809,-0.71925 6.31693,-3.89272 7.69621,-9.22051 1.87872,-7.25704 -3.14165,-23.99086 -10.11285,-33.70792 -2.07143,-2.88733 -2.35174,-6.66419 -0.49459,-6.66419 2.35802,0 13.36704,22.98697 15.73608,32.85714 0.61092,2.54527 1.93216,6.15566 2.93609,8.02309 1.6826,3.12984 1.71227,6.33112 0.0585,6.31714 -0.38056,-0.003 -1.40171,-1.30913 -2.26922,-2.90203 -1.871,-3.43544 -2.45184,-3.05706 -3.38454,2.20484 -1.31164,7.39961 -1.82305,9.49612 -2.9937,12.27246 -0.64393,1.52716 -1.5615,3.8179 -2.03903,5.09054 -1.78311,4.75196 -8.6973,13.18066 -13.6453,16.6342 -7.87718,5.49802 -17.23049,6.9029 -27.27727,4.09709 z m 46.32269,-6.506 c -0.70456,-1.91905 5.22175,-20.96409 6.07463,-19.5217 1.31466,2.22335 1.8072,12.54018 0.7574,15.86491 -1.45774,4.61671 -5.65486,6.86318 -6.83203,3.65679 z m 78.05669,-1.3276 c -0.63405,-1.07228 -0.19321,-4.31069 1.94469,-14.28602 2.09104,-9.75671 4.36236,-15.81789 9.29913,-24.81534 2.46109,-4.48545 4.33314,-8.29611 4.16009,-8.46812 -0.17306,-0.17202 -3.05986,0.2302 -6.41514,0.89382 -11.36559,2.24793 -21.95973,-0.63103 -30.99874,-8.42394 -6.62461,-5.71136 -7.58408,-7.28588 -5.66322,-9.29358 1.15994,-1.2124 1.48255,-1.10116 2.77202,0.9558 3.42148,5.45795 9.39137,9.76177 17.56148,12.66045 7.57246,2.68665 17.49218,2.11633 23.93219,-1.37594 2.42884,-1.3171 4.84058,-2.39472 5.35944,-2.39472 0.51885,0 2.97258,-1.63525 5.45274,-3.6339 6.09565,-4.9122 14.44921,-8.90727 22.57062,-10.79432 3.70325,-0.86048 7.92863,-1.84125 9.38973,-2.1795 2.2646,-0.52427 3.25155,-1.83533 6.68938,-8.88625 5.17377,-10.61127 8.78872,-13.57629 17.23774,-14.13861 3.1557,-0.21002 5.73764,-0.0483 5.73764,0.35929 0,0.40764 -0.83034,2.53396 -1.8452,4.72517 -2.69962,5.82883 -8.87495,11.09941 -15.33424,13.08764 -6.4637,1.98959 -7.31517,4.19109 -1.78486,4.61483 3.29244,0.25228 8.0973,-1.04261 25.70036,-6.92613 4.38953,-1.46712 4.64278,-1.45051 8.62759,0.56572 2.25793,1.14247 4.97206,3.34947 6.03141,4.90445 1.86486,2.73737 1.87375,2.86724 0.27969,4.08555 -3.09529,2.36567 -9.25801,1.88396 -14.48078,-1.13188 -4.67809,-2.70132 -8.26114,-2.81547 -14.46626,-0.46087 -2.57519,0.97719 -5.97724,2.05152 -7.56009,2.38742 -1.58286,0.3359 -2.87793,0.97293 -2.87793,1.41563 0,1.50479 5.73915,5.28852 10.44814,6.8883 10.6046,3.60268 16.84363,12.29508 17.68903,24.64487 l 0.45686,6.67397 -3.25935,-0.55284 c -4.3385,-0.73587 -11.82059,-4.39452 -15.32767,-7.49504 -4.0065,-3.54205 -7.35046,-11.37363 -7.35046,-17.21482 0,-3.83694 -0.41159,-5.12798 -2.18137,-6.84232 -3.0119,-2.91753 -8.66402,-4.50416 -15.80134,-4.43565 -15.12528,0.14518 -30.20708,9.22418 -39.3544,23.69071 -4.20321,6.64739 -3.53113,7.159 1.95938,1.49153 3.77579,-3.8975 4.95528,-4.67186 5.37493,-3.52879 0.35466,0.96601 -0.97964,3.12714 -3.92042,6.34977 -8.44526,9.2547 -16.03248,25.94182 -16.03248,35.2614 0,1.96441 -0.42409,2.60787 -1.71877,2.60787 -0.94532,0 -1.98103,-0.44352 -2.30156,-0.98561 z M 78.611839,287.51105 c -6.065,-3.86561 -8.5202,-10.46881 -6.38502,-17.17228 1.53505,-4.81936 2.84996,-5.0326 4.10185,-0.66521 3.06602,10.69615 12.435941,12.4171 16.486659,3.02805 2.57,-5.95693 0.508044,-16.83699 -4.20517,-22.18889 -5.745349,-6.5239 -16.177779,-6.07876 -22.929639,0.97838 -5.45782,5.7046 -8.03867,12.04048 -8.50471,20.87877 -0.22723,4.30921 -0.79696,7.63582 -1.30775,7.63582 -0.5917,0 -0.70427,-2.80428 -0.32508,-8.09859 1.32516,-18.50255 13.11589,-31.56954 27.61538,-30.60454 7.163226,0.47675 11.220489,3.56821 15.013353,11.43951 2.396248,4.97293 2.656548,6.37637 2.656548,14.32341 0,8.46048 -0.12096,9.00746 -3.046431,13.77601 -4.746793,7.73735 -12.993231,10.60642 -19.16999,6.66956 z m 198.621101,-2.80889 c -5.18037,-1.98089 -16.56919,-12.81209 -16.56919,-15.75793 0,-3.04451 2.43579,-3.36482 4.52068,-0.59447 7.15567,9.50828 24.71181,4.97899 26.21877,-6.76417 0.58285,-4.54196 1.50584,-4.82912 2.82349,-0.87841 1.34802,4.04176 1.19781,6.1945 -0.74414,10.66498 -2.25093,5.18181 -5.37715,7.13639 -12.40808,7.75777 l -5.79972,0.51257 4.33903,2.13742 c 5.36003,2.64039 10.24491,2.27971 15.88093,-1.17256 7.84407,-4.80477 11.66952,-17.38469 8.18585,-26.91899 -1.65687,-4.53464 -7.04943,-10.17376 -11.65038,-12.18308 -6.79384,-2.967 -14.7492,-0.66438 -17.59795,5.09359 -1.97279,3.98743 -1.69761,6.94391 0.95271,10.23605 2.65749,3.30104 2.36909,4.05005 -1.515,3.93462 -5.58507,-0.16598 -7.75993,-4.71923 -5.67883,-11.88913 1.69086,-5.82545 1.65851,-6.82132 -0.22186,-6.82758 -3.41026,-0.0114 -8.19611,-2.03379 -10.77787,-4.55456 -3.83169,-3.74117 -3.82327,-8.87877 0.0221,-13.45636 3.22994,-3.84503 6.42643,-4.26863 10.0056,-1.32596 1.8746,1.54122 2.15299,2.21462 1.33927,3.23944 -0.565,0.71156 -1.58904,1.29375 -2.27565,1.29375 -0.68661,0 -1.57928,0.93496 -1.98373,2.0777 -1.94732,5.50212 3.88726,10.68462 10.68121,9.48747 2.11018,-0.37184 6.87859,-0.7297 10.59645,-0.79527 6.49947,-0.11463 6.95428,0.0208 11.81141,3.5173 2.77841,2.00008 6.11222,5.09223 7.40848,6.87144 2.18955,3.00532 2.35122,3.8637 2.27785,12.09447 -0.0563,6.31861 -0.50077,9.7091 -1.54965,11.82165 -2.03234,4.09334 -1.87672,5.83138 0.52173,5.82721 2.22065,-0.004 7.62062,-3.16249 9.1542,-5.35462 1.38442,-1.97891 3.90715,-0.73388 3.90715,1.92826 0,1.19988 -1.03048,3.19132 -2.28996,4.42543 -2.04083,1.99972 -3.08412,2.24383 -9.58995,2.24383 -6.52021,0 -7.6759,0.27189 -10.81899,2.54527 -2.99367,2.16531 -4.37114,2.53326 -9.22724,2.46481 -3.13954,-0.0443 -7.61643,-0.81013 -9.94867,-1.70194 z m 74.25936,-4.29981 c -2.9981,-3.13365 -1.24605,-8.11337 2.68938,-7.64382 2.204,0.26298 2.60098,0.75081 2.85154,3.50409 0.20445,2.24667 -0.17533,3.55505 -1.27615,4.39638 -2.01786,1.54221 -2.57585,1.50863 -4.26477,-0.25665 z m 40.00631,-3.78278 c -1.82637,-0.7918 -3.32068,-1.99621 -3.32068,-2.67649 0,-2.10668 3.75794,-4.11848 7.6931,-4.11848 2.96163,0 4.43823,0.6252 6.97503,2.95325 2.99099,2.74486 3.10619,3.03876 1.6326,4.16499 -2.12343,1.62289 -8.87907,1.45465 -12.98005,-0.32327 z m 133.04866,-11.29791 c 0,-1.71017 3.75779,-5.67814 5.37736,-5.67814 2.18729,0 2.15529,1.00547 -0.12854,4.04017 -1.72629,2.29384 -5.24882,3.39309 -5.24882,1.63797 z m -374.19118,-7.22275 c -2.93663,-3.31194 -5.13927,-11.45423 -4.42615,-16.36174 0.89555,-6.16304 7.50232,-16.92303 15.41375,-25.10336 3.92341,-4.05675 6.99477,-7.52087 6.82526,-7.69805 -0.16951,-0.17717 -2.37618,0.77317 -4.90372,2.11188 -5.42643,2.87411 -11.80792,8.78702 -14.7753,13.69037 -1.1666,1.92772 -2.5053,3.25676 -2.97488,2.95342 -2.10011,-1.35662 -0.36954,-4.62043 6.00894,-11.3327 11.77778,-12.39413 25.33737,-18.00831 43.61163,-18.05688 8.74132,-0.0232 17.50477,2.21904 27.75552,7.10167 5.25037,2.50086 6.77958,3.65866 6.77958,5.13301 0,1.04707 -0.34332,1.90376 -0.76294,1.90376 -0.41961,0 -4.10557,-1.62517 -8.19102,-3.61149 -17.78933,-8.64906 -32.09638,-8.00142 -48.78312,2.20827 -8.77776,5.37062 -15.66893,13.99116 -14.43438,18.05674 1.3475,4.43755 1.88886,11.52747 1.21958,15.97224 -0.88204,5.85775 -4.21224,15.50302 -5.35268,15.50302 -0.45092,0 -1.80544,-1.11157 -3.01007,-2.47016 z m 354.47621,1.31322 c -1.65183,-1.31107 -3.30843,-5.44218 -3.30843,-8.25036 0,-1.03529 0.66076,-3.33776 1.46835,-5.11657 1.7429,-3.83898 0.87349,-4.87256 -4.12489,-4.90374 -5.09129,-0.0317 -9.92796,-1.84804 -14.44917,-5.42599 -3.33957,-2.64283 -5.00168,-4.98342 -7.65534,-10.78021 -3.89519,-8.50889 -7.31654,-12.34471 -11.6693,-13.08301 -4.02856,-0.68331 -5.62163,1.29604 -5.39641,6.70485 0.14321,3.43918 -0.0898,4.06428 -1.5147,4.06428 -0.92616,0 -2.90995,-1.07827 -4.40841,-2.39616 -3.10864,-2.73402 -3.58769,-6.6106 -1.47119,-11.90515 1.47002,-3.67732 3.68825,-5.13531 7.81303,-5.13531 2.99907,0 9.70153,3.76596 12.07308,6.78357 1.86544,2.37364 2.7201,1.89843 4.60782,-2.56201 1.80364,-4.2618 3.66451,-5.47581 8.18745,-5.3414 3.04583,0.0905 6.79902,2.50871 6.79902,4.38061 0,0.96437 -0.98522,1.367 -3.34503,1.367 -4.13933,0 -7.08902,2.06994 -8.70297,6.10733 -2.46266,6.16046 -1.05916,10.86143 5.29795,17.74531 4.54734,4.92413 10.90967,7.17823 17.69192,6.26803 2.50505,-0.33619 5.41632,-1.10752 6.46947,-1.71405 2.06758,-1.19077 7.80841,-9.4355 9.16305,-13.15957 0.85934,-2.36242 2.15053,-2.95319 3.06701,-1.40326 1.02332,1.73064 -4.96418,10.9751 -10.17889,15.71578 -5.80088,5.27358 -6.66582,8.11646 -3.84059,12.62325 2.18481,3.48523 4.05409,4.20349 6.90966,2.65502 1.35591,-0.73526 2.65064,-1.33683 2.87718,-1.33683 1.10041,0 -0.97942,6.21706 -2.55447,7.63581 -2.09415,1.88636 -7.67948,2.14998 -9.8052,0.46278 z m -129.20534,-9.00475 c -1.30214,-0.41088 -3.99912,-1.70552 -5.99328,-2.87697 -3.18862,-1.87314 -3.97834,-1.99666 -6.55048,-1.0245 -7.51139,2.83896 -7.905,-0.58531 -0.59228,-5.15271 11.67331,-7.29096 21.03898,-8.67676 27.18593,-4.02259 4.25963,3.22517 7.35623,7.1684 7.35623,9.36746 0,3.10679 -15.05044,5.71477 -21.40612,3.70931 z m -267.96031,-9.79019 c -3.97763,-2.91202 -1.67706,-10.59138 3.17296,-10.59138 4.48765,0 5.67724,7.71337 1.64488,10.66545 -2.31309,1.69341 -2.40551,1.69199 -4.81784,-0.074 z M 229.66906,238.814 c -0.9704,-2.66774 -1.19938,-12.40513 -0.34636,-14.72859 1.46556,-3.99186 5.66111,0.58533 5.66111,6.17606 0,3.77326 -1.84865,9.3143 -3.45337,10.35091 -0.56682,0.36616 -1.34887,-0.38941 -1.86138,-1.79838 z M 73.979409,234.36717 c -1.35717,-1.74784 -4.42021,-9.12643 -5.2602,-12.67134 -0.42218,-1.78169 -1.14075,-3.19253 -1.59682,-3.13519 -0.45607,0.0573 -1.64963,1.87893 -2.65234,4.04801 -2.1734,4.70152 -4.28128,6.4916 -7.64404,6.4916 -2.07521,0 -2.4873,-0.39068 -2.4873,-2.35807 0,-1.32023 0.96488,-3.29273 2.19229,-4.48169 3.72287,-3.60624 11.10274,-13.69715 11.51471,-15.74471 0.21498,-1.06848 0.56786,-3.81694 0.78418,-6.10768 0.65679,-6.95527 3.00526,-13.87393 6.74682,-19.87635 1.95603,-3.13798 3.55643,-5.94225 3.55643,-6.23171 0,-0.28945 -2.34565,0.0913 -5.21256,0.84613 -5.99883,1.57943 -12.6738,0.62529 -17.61997,-2.51866 -3.07625,-1.95537 -6.38078,-6.84745 -6.38617,-9.4542 -0.006,-2.94589 2.80032,-8.96693 4.43175,-9.50814 2.4294,-0.80592 6.12339,0.45466 7.1378,2.4358 1.20858,2.36037 0.10585,8.21055 -1.54765,8.21055 -0.88642,0 -1.11373,-0.57853 -0.7273,-1.85111 0.9903,-3.26122 -0.30658,-5.55332 -3.1421,-5.55332 -5.03346,0 -4.41486,8.03255 0.90895,11.80278 10.91386,7.72899 26.04896,2.74181 33.167748,-10.92913 3.418321,-6.56456 3.38371,-13.05834 -0.107628,-20.19378 -4.226286,-8.63749 -10.64811,-11.50258 -16.8801,-7.53106 l -2.87793,1.83404 v -2.36113 c 0,-2.75381 1.26125,-5.56545 3.80708,-8.48691 3.54104,-4.06353 12.434116,-2.15335 18.65364,4.00669 4.20944,4.16918 5.834405,9.12404 5.856323,17.85714 0.017,6.77462 0.186138,7.60455 1.344925,6.59936 0.729013,-0.63239 1.924463,-3.25797 2.656543,-5.83464 5.1908,-18.26963 -6.277478,-36.74324 -22.809921,-36.74324 -2.85859,0 -6.01897,0.45955 -7.02307,1.02122 -1.54576,0.86467 -2.24484,0.58307 -4.56009,-1.83686 -3.99104,-4.17149 -2.46743,-5.20393 7.65332,-5.18611 10.690652,0.0188 15.462788,2.16312 22.625859,10.16669 6.086562,6.80074 7.371582,10.64971 7.716122,23.11174 0.13018,4.70854 0.6281,8.44168 1.15019,8.62358 1.44206,0.50242 6.16193,-10.15088 6.83024,-15.41663 0.57269,-4.51232 1.57823,-6.06559 2.35332,-3.6352 0.50817,1.59347 -2.38918,12.38472 -4.72428,17.59569 -1.09029,2.43305 -1.71563,4.7025 -1.38966,5.04322 0.32598,0.34071 2.68482,-0.87898 5.24187,-2.71043 5.67016,-4.06117 8.19153,-4.76926 14.19216,-3.98563 7.66548,1.00104 7.95122,1.71401 2.77847,6.93278 -5.48228,5.53107 -9.99358,6.68464 -16.7565,4.28475 -4.87689,-1.73061 -7.64102,-1.11689 -12.53227,2.78253 -4.532497,3.61342 -3.961844,5.27845 1.67708,4.89334 3.85289,-0.26314 4.68462,-0.0435 4.93526,1.30325 0.23935,1.28616 -0.3171,1.61972 -2.70208,1.61972 -4.82355,0 -12.268127,2.65077 -17.158073,6.10944 -4.913792,3.47552 -11.252568,10.79194 -13.703878,15.81743 -0.84447,1.73127 -1.89959,3.64933 -2.34472,4.26235 -1.73011,2.38269 -3.70969,14.20384 -3.2901,19.64699 0.68673,8.90882 3.37556,20.85104 5.72995,25.44918 1.01169,1.97582 -1.14136,3.30473 -2.50628,1.54692 z m 392.123861,-1.24606 c -2.57749,-1.08703 -4.42758,-3.40723 -4.42758,-5.55264 0,-1.89256 0.42513,-2.16932 3.32068,-2.16175 4.11737,0.0107 13.31953,5.18223 11.88653,6.68003 -1.07655,1.12522 -8.80564,1.86686 -10.77963,1.03436 z M 339.47459,230.7434 c 0,-2.81269 2.53504,-13.49709 3.64194,-15.34967 0.66641,-1.11533 2.11201,-2.02788 3.21244,-2.02788 1.78355,0 2.00078,0.4562 2.00078,4.20186 0,5.32072 -2.75636,11.06034 -6.2073,12.92557 -2.0221,1.09295 -2.64786,1.15206 -2.64786,0.25012 z m -45.37889,-9.74174 c -2.55924,-5.95608 -2.55398,-17.8928 0.0112,-25.38683 2.64041,-7.71386 7.62779,-15.08391 11.52469,-17.03049 4.66792,-2.33173 11.44869,-2.71897 17.16994,-0.98055 6.12118,1.85993 10.06905,4.64273 13.75782,9.69769 2.6734,3.66354 2.91455,4.54574 2.90661,10.6333 -0.0132,10.12013 -4.2731,18.29971 -10.89655,20.92274 -7.43772,2.94549 -15.71682,-0.92815 -17.06722,-7.98543 -0.72693,-3.79898 0.61121,-4.41343 4.45254,-2.04451 3.93611,2.42737 8.06161,1.85113 12.08581,-1.68813 2.60817,-2.29386 2.75339,-2.74099 2.27146,-6.99415 -0.6346,-5.60042 -2.64902,-9.31606 -7.08023,-13.0596 -3.15023,-2.66134 -3.9111,-2.87478 -10.24809,-2.87478 -8.85915,0 -12.8956,2.49082 -16.49395,10.1781 -2.17857,4.65418 -2.37574,5.87137 -1.93585,11.95065 0.27944,3.86186 1.32726,8.80352 2.43989,11.50684 1.9051,4.62877 1.88735,7.55153 -0.0459,7.55153 -0.5297,0 -1.81317,-1.97837 -2.85216,-4.39638 z m 208.22196,-0.72637 c 1.51199,-1.79993 2.79049,-4.40212 2.8421,-5.78471 0.45633,-12.22154 -5.45897,-21.52005 -15.50544,-24.37371 -5.42845,-1.54192 -15.06391,-0.33898 -27.27392,3.40502 -15.60759,4.78581 -23.44749,5.72022 -31.68342,3.77621 -6.48203,-1.53 -17.19809,-6.53442 -21.04736,-9.82914 -1.22352,-1.04725 -1.7859,-2.27521 -1.45491,-3.17675 0.76993,-2.09711 1.41704,-1.90488 7.56182,2.24625 14.13752,9.55067 30.11685,10.54077 45.61258,2.82619 6.20764,-3.09048 7.55866,-4.19811 9.63279,-7.89737 2.04027,-3.63888 2.32597,-4.9625 1.85169,-8.5791 -0.92291,-7.03786 -4.88576,-9.91328 -9.00021,-6.53051 -2.97446,2.44549 -3.59278,1.6 -2.25159,-3.07885 1.33162,-4.64554 4.56299,-8.22284 7.42767,-8.22284 3.04243,0 8.9133,4.76936 10.69111,8.68519 0.83575,1.84085 1.86035,3.34701 2.27689,3.34701 1.05605,0 2.84263,-5.21428 3.48839,-10.18109 0.45321,-3.48588 0.88561,-4.21585 2.65188,-4.47691 2.32383,-0.34346 2.32318,-0.30167 -0.12636,8.17912 -1.41127,4.88611 -3.01137,7.93912 -9.23977,17.62966 -2.52957,3.93565 -4.35595,7.41002 -4.05862,7.72079 0.29734,0.31078 4.95711,0.57496 10.35507,0.58708 6.83483,0.0154 12.09959,0.60225 17.34134,1.93321 13.08803,3.32325 15.02034,3.29764 19.45853,-0.25791 5.14624,-4.12279 7.43221,-8.98451 7.85093,-16.6971 0.26825,-4.94102 -0.0474,-7.03682 -1.54733,-10.27547 -2.39587,-5.17302 -6.85368,-7.98685 -10.1592,-6.41266 -5.02624,2.39365 -7.25055,10.15693 -4.10694,14.33406 2.27693,3.02554 3.61357,3.18624 5.77156,0.69388 2.11701,-2.44505 3.0993,-2.33794 3.0993,0.33795 0,3.62993 -3.22971,7.06648 -6.64117,7.06648 -2.35256,0 -3.53665,-0.71782 -5.69158,-3.45032 -3.42218,-4.33942 -3.5746,-8.94051 -0.52313,-15.79142 2.70718,-6.07794 6.80376,-8.40105 11.96456,-6.78493 8.68017,2.71823 12.7203,14.55716 9.21928,27.01562 -2.09546,7.45677 -4.45519,10.83233 -9.75993,13.96151 -2.62162,1.54644 -4.9472,3.11719 -5.16797,3.49055 -0.22077,0.37336 0.74488,2.13232 2.14588,3.90883 2.52431,3.20089 5.47871,13.90983 4.2048,15.24133 -1.14011,1.19167 -3.15907,-1.63033 -3.74069,-5.22853 -0.75518,-4.67199 -3.47549,-8.83748 -8.26483,-12.65561 -4.77051,-3.80309 -8.12262,-4.20401 -3.98754,-0.4769 3.60404,3.24847 5.6174,7.54034 5.6112,11.96133 -0.0123,8.77075 -3.99154,15.0862 -9.50546,15.0862 h -3.07028 z m -393.23592,-3.53762 c -14.162358,-4.1061 -19.288385,-20.29892 -9.873828,-31.19088 3.061948,-3.54246 4.842948,-4.25254 7.745768,-3.08826 1.19122,0.47778 1.07,0.97134 -0.81309,3.31045 -1.49645,1.85884 -2.20619,3.84981 -2.1919,6.14877 0.0957,15.39833 10.15742,19.35901 20.99827,8.2657 4.49978,-4.60457 5.8658,-8.41805 5.89143,-16.44697 0.0239,-7.48081 -2.526,-12.81836 -8.31502,-17.40548 -4.2038,-3.33101 -5.51288,-5.7217 -3.13308,-5.7217 3.87121,0 13.24326,8.43147 16.05938,14.44764 2.11771,4.52416 2.30761,5.7865 1.97252,13.11215 -0.30077,6.57537 -0.87857,9.24022 -3.05987,14.1123 -5.58842,12.48213 -14.50443,17.5806 -25.28058,14.45628 z M 245.10881,206.5104 c -0.81321,-3.38658 0.99252,-6.1023 4.05753,-6.1023 2.01699,0 2.72982,0.50517 3.14344,2.22768 0.81322,3.38658 -0.99252,6.1023 -4.05753,6.1023 -2.01699,0 -2.72982,-0.50517 -3.14344,-2.22768 z m 22.83622,-0.23514 c -8.95759,-4.61475 -11.74133,-18.91794 -5.99048,-30.77981 1.2382,-2.55393 2.25126,-4.85765 2.25126,-5.11936 0,-0.26171 -1.80738,-0.21691 -4.01639,0.0996 -3.42067,0.49005 -4.34008,0.25757 -6.19861,-1.56737 -2.92535,-2.87249 -2.75169,-4.10339 0.82954,-5.87963 3.99751,-1.98272 4.85826,-1.90149 8.69016,0.82009 5.77591,4.10229 8.07281,2.2436 3.7946,-3.07064 -1.65285,-2.05313 -2.21378,-3.81896 -2.21378,-6.96911 0,-7.39289 2.78524,-10.7852 8.85515,-10.7852 5.65856,0 8.56124,3.11536 7.82165,8.39473 -0.45389,3.23994 -2.50856,3.36757 -2.50856,0.15583 0,-5.61912 -6.31859,-7.79696 -9.6764,-3.3352 -2.29577,3.05057 -2.30661,4.9994 -0.0535,9.61556 1.81078,3.7099 2.97776,4.3457 8.84438,4.81863 5.23507,0.42202 3.49245,2.88319 -2.77897,3.92481 -8.01091,1.33054 -14.38755,10.37347 -14.36574,20.37258 0.0225,10.29683 4.80751,17.5098 11.61593,17.5098 6.88004,0 10.80536,-10.04103 6.14104,-15.70883 -2.67869,-3.25496 -5.58201,-2.4063 -7.40976,2.16593 -1.01271,2.53334 -1.50947,3.00055 -2.1194,1.99331 -1.62596,-2.68514 -0.86728,-6.50306 1.85841,-9.35198 2.35292,-2.4593 3.08666,-2.72696 5.97723,-2.18038 1.85975,0.35167 4.45222,1.81396 5.9516,3.35701 2.29687,2.36381 2.65075,3.38978 2.61381,7.57802 -0.10318,11.70007 -8.92975,18.5697 -17.91317,13.94165 z m 86.17375,-9.62155 c -4.55811,-2.37658 -8.13979,-5.98298 -10.51908,-10.59169 -2.43248,-4.7117 -2.50244,-16.68889 -0.14602,-24.99595 0.86547,-3.05102 1.49998,-7.52568 1.41002,-9.94369 -0.18485,-4.96861 0.49107,-5.33436 4.06224,-2.19813 1.99766,1.75436 3.78943,2.27384 8.87318,2.57258 5.49489,0.3229 6.83315,0.76371 9.74066,3.20851 4.67831,3.93377 6.33266,9.02449 4.84548,14.91032 -1.05416,4.17205 -4.14927,8.03734 -5.65632,7.06381 -0.37889,-0.24475 -0.68889,-2.86262 -0.68889,-5.81749 0,-4.57068 -0.34842,-5.73665 -2.33454,-7.81258 -2.69654,-2.81847 -7.6054,-3.30228 -10.67852,-1.05246 -5.58384,4.08791 -7.41367,15.13272 -3.8618,23.3097 3.62958,8.35587 14.14786,11.51168 23.16373,6.94983 5.20484,-2.63354 11.57159,-9.56753 14.90975,-16.23814 3.18505,-6.36462 3.36119,-8.74117 0.89111,-12.02335 -3.14925,-4.18464 -7.86132,-15.93255 -9.78459,-24.39449 -1.46994,-6.46738 -1.7881,-10.37142 -1.54385,-18.94443 0.16921,-5.93907 0.61315,-11.11754 0.98655,-11.50771 1.69509,-1.77127 2.45268,2.02836 2.65003,13.29115 0.26853,15.32452 1.87871,18.37004 2.76271,5.22544 0.65903,-9.79934 3.19079,-21.3082 6.31499,-28.706617 3.33522,-7.898106 10.77021,-12.278436 18.72469,-11.031656 3.96942,0.62217 4.90543,2.12094 2.5828,4.1357 -0.69504,0.602926 -1.87803,2.980646 -2.62885,5.283826 -1.65217,5.068067 -7.28747,10.707037 -12.93221,12.940627 -7.63622,3.0216 -9.75464,7.05189 -9.72312,18.49828 0.0513,18.61549 5.17402,33.5835 15.21122,44.44497 3.07914,3.332 3.40768,4.08155 2.53561,5.78471 -1.42211,2.77736 -2.19563,2.49043 -5.95337,-2.20829 -1.83199,-2.29075 -3.84926,-4.16499 -4.48281,-4.16499 -0.63356,0 -2.13073,2.31333 -3.32705,5.14073 -2.62778,6.21055 -11.84593,16.6268 -16.84112,19.03001 -4.87821,2.34693 -13.90522,2.26984 -18.56263,-0.15853 z m -129.76115,-0.52932 c 0,-1.59952 5.67874,-10.66455 7.22129,-11.52743 2.19406,-1.22732 4.29041,-0.48095 4.29041,1.52753 0,2.9005 -2.91604,7.89746 -5.38853,9.23384 -2.53811,1.37185 -6.12317,1.82037 -6.12317,0.76606 z m -69.4497,-1.7985 c -2.70481,-2.82709 -1.12934,-6.87554 2.67565,-6.87554 3.25345,0 4.26461,5.71583 1.30413,7.37187 -2.21517,1.23912 -2.33353,1.22436 -3.97978,-0.49633 z m 31.52183,-3.97217 c -2.32399,-5.68747 -3.19815,-15.07603 -2.02259,-21.72278 2.68236,-15.16625 13.64449,-28.40461 24.81776,-29.97101 7.31825,-1.02597 15.13365,3.61935 18.87322,11.21788 2.19627,4.46264 2.62364,15.55705 0.81271,21.09771 -3.377,10.33212 -17.54235,13.27754 -23.6439,4.9163 -2.78061,-3.81039 -3.57657,-8.4877 -2.1911,-12.87555 1.00631,-3.18701 4.00212,-5.96757 5.14383,-4.77424 0.29434,0.30765 0.43048,2.62079 0.30254,5.14032 -0.19547,3.84946 0.12474,4.95447 2.00529,6.92005 2.56604,2.68206 4.85127,2.93211 8.546,0.9351 3.61362,-1.95317 5.56924,-6.37062 5.57471,-12.59244 0.008,-9.60363 -5.49661,-15.62127 -14.29062,-15.62127 -6.01553,0 -10.84461,2.70488 -15.55434,8.71235 -5.4519,6.95417 -7.93317,13.72508 -8.33933,22.75646 -0.33141,7.36928 -0.18027,8.20999 2.38791,13.28313 1.50794,2.97876 2.74171,5.53329 2.74171,5.67675 0,0.14347 -0.76729,0.47057 -1.70507,0.7269 -1.35274,0.36974 -2.06744,-0.42078 -3.45873,-3.82566 z m 246.15696,0.92775 c -2.14344,-1.46167 3.11808,-8.40192 8.26657,-10.90406 5.24809,-2.55055 6.104,-1.51518 3.34356,4.04458 -2.63429,5.30567 -8.66431,8.86832 -11.61013,6.85948 z m 54.76891,-10.81831 c 0,-0.18426 1.0343,-1.9154 2.29844,-3.84696 1.26416,-1.93156 3.67302,-6.35022 5.35305,-9.81923 2.21032,-4.56399 3.47188,-6.22461 4.5643,-6.00812 1.91967,0.38045 2.45428,6.70863 0.84249,9.97238 -1.69869,3.43969 -13.05828,11.87954 -13.05828,9.70193 z m -340.5635,-9.76853 c -2.1775,-2.5149 -2.17904,-8.39845 -0.003,-10.91184 1.19845,-1.38413 1.49555,-2.68109 1.09442,-4.77745 -0.66214,-3.46037 0.66717,-6.42823 2.87922,-6.42823 1.05698,0 1.89886,-1.03541 2.44581,-3.00805 0.73153,-2.63832 1.20986,-3.01047 3.89154,-3.02778 2.2599,-0.0146 3.79049,-0.79928 5.86731,-3.00805 3.25905,-3.46631 6.52726,-3.87274 9.14445,-1.13721 2.53262,2.64713 2.19154,4.30848 -1.02249,4.98035 -5.971,1.24819 -6.66862,4.10319 -2.07681,8.49929 2.05734,1.96965 3.13457,3.85873 3.20422,5.61904 0.26062,6.58731 -0.65528,9.36479 -3.61584,10.96497 -4.11661,2.22504 -7.80726,1.77453 -11.23537,-1.37149 -3.36999,-3.09268 -4.5314,-3.35038 -6.90927,-1.53301 -1.13591,0.86815 -1.49024,1.99263 -1.17353,3.7243 0.58994,3.22555 -0.4245,3.80186 -2.491,1.41516 z m 154.23398,-5.56419 c -1.30966,-1.07676 -3.00059,-3.57576 -3.75762,-5.55332 -0.75705,-1.97757 -1.85272,-3.59558 -2.43485,-3.59558 -0.58213,0 -2.41021,1.45774 -4.06238,3.23943 -3.02533,3.26248 -5.31309,4.18075 -5.31309,2.13258 0,-0.60878 1.82907,-2.7954 4.06461,-4.85915 3.25102,-3.00122 4.26181,-4.67861 5.04977,-8.38007 2.06494,-9.69998 0.58097,-18.70652 -5.16805,-31.36602 -1.68345,-3.70701 -3.06082,-7.22501 -3.06082,-7.81778 0,-1.58481 -1.49547,-1.31221 -2.11905,0.38626 -0.29562,0.80522 -0.53749,4.07014 -0.53749,7.25539 0,4.89873 -0.37533,6.30131 -2.43516,9.09994 -1.33934,1.81971 -4.02909,4.40089 -5.97723,5.73596 l -3.54206,2.42739 -0.6131,-3.50443 c -0.33721,-1.92744 -0.63607,-5.48418 -0.66414,-7.90389 -0.0471,-4.05941 0.27823,-4.739 4.20897,-8.79275 2.34299,-2.41632 5.16561,-5.02032 6.27247,-5.78667 2.34503,-1.62362 3.96659,-8.779967 3.0927,-13.648827 l -0.5563,-3.099426 -5.57717,5.753666 c -5.21466,5.379697 -14.50677,11.887387 -17.01099,11.913587 -2.99676,0.0314 -0.43038,-2.98584 5.36983,-6.31311 8.86246,-5.083917 16.10339,-13.324043 21.26709,-24.201793 5.80639,-12.23162 13.87539,-22.19122 13.87539,-17.12645 0,0.77076 -1.23099,2.551 -2.73553,3.95609 -2.63059,2.45669 -6.18194,8.17543 -9.31797,15.0047 -0.96459,2.10058 -1.60377,6.33063 -1.8181,12.032196 -0.32743,8.710757 -0.29091,8.894157 3.91622,19.666807 5.28331,13.5283 6.26277,14.85987 9.94379,13.51864 5.03222,-1.83356 14.87958,-0.60926 21.26395,2.64369 6.60518,3.36545 10.12917,6.26604 9.30538,7.65923 -0.31371,0.53055 -2.1214,1.79169 -4.01709,2.80252 -5.13505,2.73816 -11.65024,2.4109 -20.78539,-1.04404 -4.19102,-1.58506 -7.86457,-2.62634 -8.16344,-2.31396 -0.29887,0.31237 -0.67632,3.24983 -0.83878,6.52767 -0.28662,5.7827 -0.19251,6.08394 3.16838,10.14273 3.76953,4.55228 4.97048,8.27323 4.0634,12.58987 -0.69324,3.299 -1.21933,3.3979 -4.35615,0.81892 z m 119.91588,-10.07446 c -1.94813,-2.03621 -3.6052,-4.63933 -3.68236,-5.7847 -0.60761,-9.01841 3.57648,-14.26699 9.02552,-11.32178 2.68563,1.45158 3.48908,3.52389 3.22331,8.31373 -0.12502,2.25313 0.23078,2.83368 1.88707,3.07909 4.12047,0.61053 4.56996,-0.88683 4.35593,-14.51057 -0.22811,-14.51931 0.27951,-16.14939 7.13756,-22.92062 5.81185,-5.73828 9.04112,-7.10993 15.69613,-6.66701 6.94506,0.46222 16.71711,5.30794 18.67185,9.25892 1.75219,3.54155 2.83117,3.27244 3.47051,-0.86557 1.29813,-8.40195 2.49303,-12.32315 4.41617,-14.492067 2.7107,-3.05714 6.34305,-3.97287 9.16371,-2.3102 3.20519,1.88932 3.38067,3.506917 0.37074,3.417467 -6.37291,-0.18939 -9.53629,5.24844 -9.53629,16.39285 0,5.96343 0.47382,8.60569 2.43466,13.57703 1.33905,3.39493 2.53449,8.18467 2.65654,10.64387 0.20777,4.18657 0.0843,4.47125 -1.93918,4.47125 -1.85282,0 -2.36859,-0.72613 -3.61581,-5.09054 -2.07867,-7.27383 -3.96603,-10.66125 -7.51773,-13.49274 -3.19006,-2.54319 -4.47726,-2.62434 -12.15293,-0.76606 -1.7833,0.43175 -2.57078,0.18754 -2.97877,-0.92376 -0.78146,-2.12851 1.28433,-6.8616 3.28437,-7.52509 2.42552,-0.80464 2.06801,-2.06019 -1.17329,-4.12047 -6.48851,-4.12431 -14.91154,-3.27369 -20.76366,2.09686 -4.00207,3.67275 -5.60926,7.57858 -5.60926,13.63176 0,9.3018 5.14158,15.72727 12.58475,15.72727 3.64498,0 4.80398,-0.44705 6.93581,-2.67528 2.35959,-2.46626 2.6014,-2.53744 3.09528,-0.91102 0.89662,2.95274 -1.2795,8.12114 -4.0498,9.61849 -3.19354,1.72611 -9.46526,1.71795 -12.36743,-0.0161 -3.35765,-2.00618 -4.24032,-1.69824 -6.10959,2.1315 -1.97394,4.04419 -4.88511,5.73572 -9.87135,5.73572 -2.90311,0 -4.1048,-0.63173 -7.04246,-3.70222 z M 59.209039,152.30069 c -2.98163,-1.3247 -7.26132,-6.02992 -9.31889,-10.24544 -1.66975,-3.42098 -1.89807,-5.09309 -1.56588,-11.4679 0.41549,-7.97311 2.45441,-14.09221 6.57887,-19.74415 l 2.28232,-3.12758 2.20905,3.39789 2.20904,3.39789 -2.63127,2.91817 c -4.89147,5.42481 -7.01676,17.2794 -4.31122,24.04744 3.74758,9.37475 17.38795,12.02356 17.38795,3.37655 0,-3.18472 -2.21094,-3.82975 -3.0993,-0.90422 -0.82556,2.71871 -2.21379,2.25439 -2.21379,-0.74044 0,-3.13649 1.4388,-4.81288 4.13077,-4.81288 5.39865,0 4.84123,10.48563 -0.71713,13.48994 -2.67273,1.44462 -8.15473,1.65243 -10.94052,0.41473 z M 400.55724,138.36107 c -1.29308,-2.5254 -0.30265,-5.4054 2.28227,-6.63642 2.62142,-1.2484 4.81975,0.33848 4.81975,3.47916 0,4.47117 -5.23713,6.79938 -7.10202,3.15726 z M 356.078,137.39633 c -2.21969,-1.3513 -1.95196,-5.68701 0.49983,-8.09451 2.50203,-2.4568 4.29562,-2.54895 6.22567,-0.31984 1.97054,2.27587 1.84788,5.31218 -0.30551,7.56294 -1.94088,2.02863 -4.03095,2.30582 -6.41999,0.85141 z m -121.24018,-6.10201 c -2.14363,-0.5934 -2.79024,-3.18372 -1.20763,-4.83789 0.7524,-0.78641 4.453,-2.31616 8.22355,-3.39942 3.77055,-1.08327 7.59926,-2.30328 8.50822,-2.71116 2.6855,-1.20503 0.51025,2.172 -4.64656,7.21369 -4.38349,4.28563 -6.39396,4.97593 -10.87758,3.73478 z m 270.89225,-0.37686 c -1.7801,-1.08369 -2.07979,-5.48041 -0.48703,-7.14518 1.47072,-1.53722 3.85823,-1.38841 5.51549,0.34378 1.86557,1.94991 1.75257,3.72151 -0.3795,5.94998 -2.00137,2.09186 -2.47032,2.17774 -4.64896,0.85142 z m -315.93909,-8.31745 c -1.6247,-3.17303 0.18677,-6.41727 3.58316,-6.41727 1.98491,0 2.90957,0.55385 3.47681,2.0825 1.71988,4.63496 -4.843,8.66452 -7.05997,4.33477 z m -40.09664,-3.13045 c -4.22291,-1.57418 -6.38542,-3.59876 -9.19362,-8.60726 -3.3676,-6.00619 -3.60692,-12.867477 -0.77244,-22.145533 2.01391,-6.59209 2.88618,-8.10651 6.77279,-11.75891 7.36229,-6.91862 17.62924,-11.28287 18.32633,-7.7901 0.24096,1.20728 -0.81566,1.91999 -4.51115,3.04288 -9.74431,2.96083 -17.08502,10.2946 -19.23431,19.21613 -2.33923,9.709993 3.16676,20.946363 11.01845,22.485953 5.03855,0.98798 12.09339,-1.58294 15.51235,-5.65299 3.07836,-3.66458 3.2482,-4.71958 1.47415,-9.157457 -1.76154,-4.40655 -5.01407,-6.41646 -9.39057,-5.8029 -3.01747,0.42303 -3.52337,0.24598 -3.52337,-1.233026 0,-3.99773 6.25751,-7.07632 11.30676,-5.56273 7.02979,2.10727 9.9456,6.359346 9.9456,14.503463 0,12.17926 -7.37201,19.85085 -18.99106,19.76281 -2.94833,-0.0223 -6.88129,-0.6075 -8.73991,-1.30033 z m 175.89895,-1.3005 c -8.38048,-3.02693 -17.92282,-12.42495 -20.41663,-20.107847 -0.78559,-2.42024 -0.67475,-3.01329 0.73515,-3.9336 2.31811,-1.51314 2.32664,-1.50803 4.32823,2.59278 4.42374,9.063317 11.65527,13.828817 22.15043,14.596887 17.37612,1.27166 33.41579,-17.419117 26.78546,-31.212663 -1.75451,-3.65004 -6.59806,-7.42287 -9.52944,-7.42287 -2.38413,0 -6.62984,3.32158 -6.62984,5.18677 0,2.09861 2.54372,2.61128 4.37265,0.88128 2.60909,-2.46795 3.14912,0.0375 0.58561,2.71695 -2.45534,2.56635 -3.37279,2.77831 -5.90198,1.36352 -4.61182,-2.57977 0.84676,-12.92518 6.81975,-12.92518 5.17716,0 8.49163,2.1349 12.27704,7.90785 3.30989,5.04776 3.54206,5.83011 3.54206,11.93612 0,8.696366 -2.97904,15.148583 -10.23694,22.171933 -8.07024,7.80945 -18.38224,10.04029 -28.88155,6.24807 z m 94.46319,-5.71767 c 0,-3.27153 2.50345,-7.80721 5.24264,-9.49845 3.17132,-1.95804 8.04008,-2.11653 8.04008,-0.26173 0,2.83245 -7.00048,9.72645 -11.29031,11.11859 -1.64341,0.53332 -1.99241,0.29538 -1.99241,-1.35841 z m -305.78911,0.26053 c -0.21499,-0.38179 -0.68561,-2.15191 -1.04584,-3.9336 -0.36022,-1.78169 -1.36614,-4.69719 -2.23536,-6.47887 -1.89,-3.874037 -16.905801,-19.436623 -18.753718,-19.436623 -0.713337,0 -3.05592,1.40193 -5.205738,3.1154 -5.208785,4.15156 -8.623005,5.21733 -16.659495,5.20041 -7.61569,-0.016 -9.39696,-0.73955 -8.56512,-3.47896 1.72629,-5.68499 9.31433,-9.97361 19.32344,-10.92128 3.774513,-0.35737 6.862747,-0.7635 6.862747,-0.90252 0,-0.13901 -0.86183,-2.60668 -1.915179,-5.48371 -1.514753,-4.13727 -2.579328,-5.58812 -5.091708,-6.93924 -5.80928,-3.12414 -10.80103,-10.74256 -8.1576,-12.45016 1.27487,-0.82354 6.6281,1.64998 9.05047,4.18187 1.656916,1.73184 2.142751,1.8683 2.76031,0.77529 0.412209,-0.72956 2.032767,-3.60326 3.60124,-6.38599 3.726015,-6.61058 7.539557,-9.28656 13.234261,-9.28656 3.6435,0 4.79246,0.44706 6.95317,2.70546 2.11931,2.21513 2.58843,3.48613 2.58843,7.01285 0,3.52672 -0.46912,4.79772 -2.58843,7.01285 -1.73924,1.81788 -3.48231,2.70546 -5.31309,2.70546 -3.114386,0 -6.266721,-2.79347 -6.266721,-5.55332 0,-2.63662 2.53513,-2.3054 3.542061,0.46278 1.75397,4.82189 7.96963,1.76133 7.96963,-3.92421 0,-3.4005 -4.23251,-7.64521 -7.62326,-7.64521 -7.234566,0 -12.665544,6.50938 -13.398978,16.05956 -0.386402,5.03141 -0.110874,6.72237 1.809885,11.10756 1.246121,2.84496 4.18589,7.30444 6.532821,9.90997 4.488172,4.9827 11.521002,11.05168 12.806872,11.05168 1.32629,0 0.81846,-2.44692 -1.01285,-4.88032 -2.60974,-3.46776 -2.29535,-8.89569 0.89826,-15.50824 1.46811,-3.03981 2.96242,-5.51075 3.32068,-5.49097 0.61826,0.0341 3.93075,6.94103 4.96416,10.3508 0.44516,1.46884 -1.10214,7.08961 -3.93335,14.28845 -1.02014,2.593856 -0.88002,3.850206 1.23877,11.106633 2.48128,8.49788 2.95929,12.34692 1.53337,12.34692 -0.45829,0 -1.00915,-0.31237 -1.22414,-0.69416 z m 11.13392,0.0812 c -0.60879,-0.25676 -1.10689,-1.87522 -1.10689,-3.59658 0,-5.18051 5.55509,-6.65981 6.7243,-1.79066 0.99788,4.15564 -1.91469,6.94887 -5.61741,5.38724 z m 97.14661,-2.53856 c -8.40005,-3.12656 -10.43909,-4.4332 -16.25824,-10.418457 -4.71116,-4.84565 -10.26577,-14.369716 -10.26783,-17.605456 -8.8e-4,-1.38136 -6.42446,-6.87627 -11.00825,-9.41679 -1.91438,-1.06102 -5.79958,-2.20334 -8.63378,-2.5385 -4.74311,-0.56088 -5.15309,-0.79253 -5.15309,-2.91164 0,-1.9417 0.31205,-2.2118 1.99241,-1.72455 1.09582,0.31775 4.3833,0.81195 7.3055,1.09822 l 5.31309,0.5205 -2.46468,-2.14722 c -1.35558,-1.18097 -3.74647,-3.25843 -5.3131,-4.61657 -2.40703,-2.08671 -2.84792,-3.09065 -2.84529,-6.47888 0.004,-4.73643 2.0852,-11.87926 3.4593,-11.87075 0.53084,0.003 2.90973,1.74795 5.28643,3.87703 l 4.32126,3.87106 -0.59369,9.00974 c -0.56633,8.59461 -0.50024,9.10178 1.43459,11.00747 3.27304,3.22377 4.87516,3.86896 5.48468,2.20874 0.29379,-0.8002 0.29469,-1.85988 0.002,-2.35485 -0.95451,-1.61427 4.19278,-16.54548 7.04398,-20.43308 5.72269,-7.80254 18.52601,-14.59651 27.50755,-14.59651 5.86436,0 12.48572,2.48527 16.09165,6.03987 1.79416,1.76861 3.98931,3.21566 4.87812,3.21566 2.05903,0 3.60592,-2.87635 2.51561,-4.67763 -0.44559,-0.73616 -0.81628,-1.85909 -0.82373,-2.49541 -0.0206,-1.75962 3.94591,-1.38056 5.60504,0.53566 2.83164,3.2704 1.12197,10.85541 -2.67111,11.85046 -1.97231,0.5174 -2.06198,0.91174 -2.06198,9.06846 0,10.92097 -1.62957,16.12424 -6.38122,20.37537 -6.21109,5.55684 -16.38022,6.17465 -19.71537,1.19776 -1.90688,-2.84555 -1.70633,-3.4603 1.1288,-3.4603 1.36575,0 4.33578,-1.228 6.60006,-2.72889 5.32943,-3.53265 8.07588,-8.87235 8.12131,-15.78967 0.0396,-6.02903 -1.88207,-10.01652 -6.84966,-14.21315 -2.88697,-2.43891 -4.25389,-2.89965 -9.52659,-3.21105 -5.29092,-0.31248 -6.83193,-0.0179 -10.96598,2.09613 -6.0476,3.0926 -13.10211,11.017 -15.00556,16.85591 -0.85029,2.60828 -1.42222,7.41017 -1.42222,11.9407 0,6.80746 0.31455,8.23515 3.09359,14.0413 3.55374,7.424676 10.27836,14.621416 16.90371,18.090483 8.78521,4.59998 13.53833,5.76249 23.17157,5.66726 4.99209,-0.0494 9.07653,0.18387 9.07653,0.51825 0,2.19275 -2.80349,2.827 -12.35293,2.79469 -8.40572,-0.0284 -11.25996,-0.41881 -16.02225,-2.19137 z m 158.01395,-9.25263 c -0.57487,-1.565837 3.44297,-11.193213 7.66302,-18.361753 3.189,-5.41713 3.28004,-8.72686 0.39582,-14.38983 -1.21759,-2.39064 -2.21379,-5.41971 -2.21379,-6.73127 0,-4.43176 2.82813,-12.41357 6.00502,-16.9479 2.85348,-4.07274 3.2677,-4.35375 4.28155,-2.90454 1.46684,2.09671 2.4539,10.54579 1.69286,14.49047 -0.32938,1.70727 -1.59608,5.90366 -2.8149,9.32532 -2.07847,5.83505 -2.16292,8.12488 -0.29966,8.12488 0.43489,0 2.02923,-1.88152 3.54298,-4.18115 1.51375,-2.29964 5.81657,-7.45217 9.56183,-11.45009 3.74525,-3.99791 7.46875,-8.5364 8.27443,-10.08552 2.04995,-3.94155 5.39994,-5.95951 10.7613,-6.48236 4.51854,-0.44066 4.57164,-0.4168 3.04897,1.37074 -0.85231,1.00056 -1.54965,2.55694 -1.54965,3.4586 0,0.90167 -1.35484,3.05549 -3.01075,4.78628 -2.48145,2.59364 -3.67379,3.14688 -6.78218,3.14688 -3.53077,0 -4.17374,0.43719 -10.07614,6.8514 -6.31265,6.86004 -9.22562,11.1757 -8.23925,12.20668 0.82589,0.86322 10.04118,-2.22182 11.27379,-3.77418 1.39477,-1.75659 9.06451,-4.17749 13.23181,-4.17653 5.45221,10e-4 18.65648,7.89633 18.65648,11.15504 0,2.02969 -16.00331,8.25389 -21.26548,8.27083 -3.44768,0.0111 -8.95875,-2.69327 -12.43256,-6.10085 -1.24423,-1.22051 -3.10398,-2.21911 -4.13278,-2.21911 -6.81857,0 -17.00307,9.56855 -20.83247,19.572546 -2.285,5.969397 -3.80647,7.588817 -4.74025,5.045417 z m -153.10526,-0.91078 c -6.07977,-2.769487 -5.72386,-5.083467 1.07405,-6.983077 4.39477,-1.228066 7.90222,-0.54702 10.65937,2.06975 2.68615,2.5494 2.52342,3.28196 -1.07845,4.854967 -3.75311,1.63905 -7.14417,1.65762 -10.65497,0.0584 z M 466.442,99.740003 c -1.32831,-0.91279 -3.56938,-9.565786 -4.25122,-16.414396 -0.72636,-7.29569 1.26491,-19.00295 4.41656,-25.9662 8.43154,-18.62866 29.9709,-25.40217 45.59409,-14.33801 4.3977,3.1144 7.13466,3.53306 8.86345,1.35581 0.92088,-1.15974 0.93922,-1.83643 0.0884,-3.26044 -1.36639,-2.28685 0.57288,-3.33303 3.32481,-1.79365 3.57083,1.99745 1.75407,9.78704 -2.63965,11.31783 -0.9243,0.32203 -0.85701,1.19321 0.33207,4.29941 2.23704,5.84371 2.05919,19.42823 -0.31812,24.29884 -2.07958,4.26061 -7.36112,10.64136 -10.0687,12.16421 -3.18515,1.791456 -8.38652,2.364446 -12.7115,1.400316 -4.56122,-1.016796 -5.66895,-2.056816 -8.20023,-7.699006 -0.93128,-2.07581 -2.56165,-4.92813 -3.62305,-6.33849 -1.59076,-2.11376 -1.71201,-2.70841 -0.69015,-3.38465 0.6818,-0.45121 2.13623,-0.82676 3.23206,-0.83455 1.09582,-0.008 1.99241,-0.33869 1.99241,-0.73533 0,-0.39663 1.44013,-2.27088 3.20029,-4.16499 3.59517,-3.86876 6.56965,-4.39457 11.37556,-2.0109 2.79702,1.38728 4.90548,4.58914 4.90548,7.44933 0,2.10669 -2.4223,6.56014 -3.88789,7.14797 -1.03769,0.4162 -1.19738,-0.12044 -0.79915,-2.68544 0.64667,-4.16517 -1.54446,-6.86592 -5.57038,-6.86592 -5.72735,0 -7.80996,5.06263 -4.77671,11.61178 5.26091,11.358976 19.12533,5.48318 23.89551,-10.127 1.44822,-4.73926 0.67566,-13.11924 -1.64849,-17.88091 -4.05925,-8.31657 -13.87242,-13.90846 -22.73086,-12.95285 -12.05772,1.30073 -23.46227,13.34874 -26.60299,28.10395 -1.4613,6.86522 -1.3975,17.43722 0.15693,26.003576 0.55256,3.045147 -0.5191,3.907307 -2.85851,2.29971 z m -140.69289,-3.81883 c -10.6328,-5.125716 -14.51853,-20.535146 -8.54355,-33.880696 3.24584,-7.24982 2.02689,-8.00928 -3.39286,-2.1139 -5.19233,5.64798 -7.30898,10.8366 -7.80682,19.13706 -0.38889,6.48406 -1.10403,8.37536 -3.18107,8.41279 -2.22675,0.0401 2.83473,-23.73557 5.86551,-27.55257 0.74212,-0.93462 0.51023,-1.34423 -0.99373,-1.75531 -1.58525,-0.43329 -1.86354,-1.0016 -1.45003,-2.9612 l 0.51171,-2.425 -6.79369,0.30921 c -3.73653,0.17006 -8.07329,0.0583 -9.63724,-0.24837 -3.48781,-0.6839 -11.06777,-5.79981 -11.06777,-7.46992 0,-1.52927 6.89486,-5.08589 9.85951,-5.08589 4.42466,0 11.54452,2.9247 14.95134,6.14173 l 3.45297,3.26059 6.89908,-1.11699 c 3.79448,-0.61434 10.88388,-2.10458 15.75421,-3.31163 10.42747,-2.58432 21.78919,-2.89265 28.60734,-0.77632 4.90478,1.52242 12.80513,8.70538 14.40138,13.09368 2.75645,7.57784 -1.49729,17.87997 -7.38263,17.87997 -2.47911,0 -5.96133,-4.18032 -5.96133,-7.15642 0,-3.05605 2.20191,-6.72688 4.03503,-6.72688 1.67071,0 1.64038,2.2357 -0.0502,3.70221 -1.99113,1.72721 -1.60373,4.39645 0.88552,6.10121 2.05073,1.40445 2.37683,1.40445 4.42757,0 1.82053,-1.24679 2.21379,-2.25875 2.21379,-5.69664 0,-8.10022 -5.70528,-15.51482 -14.20999,-18.46735 -13.3655,-4.64003 -31.44793,4.838 -33.86972,17.75304 -0.7386,3.93888 0.83261,13.63204 2.88135,17.77564 2.2043,4.45822 4.59545,5.81784 10.32644,5.87167 5.60652,0.0527 5.96828,1.02349 1.88648,5.062696 -3.7525,3.71334 -8.00229,4.46896 -12.61859,2.24359 z M 273.94162,81.673957 c -4.3936,-2.42844 -5.84114,-4.35458 -4.99815,-6.6507 1.33421,-3.6341 10.3161,2.39843 10.3161,6.92862 0,2.34048 -0.64132,2.30696 -5.31795,-0.27792 z m 176.52162,-17.32093 c -2.68484,-1.13162 -3.41059,-4.22846 -1.64936,-7.03797 1.87353,-2.98865 3.59684,-3.63668 6.27692,-2.36034 2.73541,1.30269 2.94056,5.80173 0.38628,8.47149 -1.9537,2.04204 -2.24163,2.09527 -5.01384,0.92682 z m -305.35923,-3.89892 c -3.40924,-1.88919 -7.49367,-4.05456 -9.07653,-4.81193 -4.79865,-2.29608 -3.38398,-7.02482 2.10156,-7.02482 1.7534,0 3.87003,0.89336 5.4879,2.31625 2.88124,2.53403 8.4696,11.0989 7.98717,12.24136 -0.16582,0.39271 -3.09087,-0.83168 -6.5001,-2.72086 z m -91.945991,-0.42159 c -0.32469,-0.33937 -0.59034,-1.99576 -0.59034,-3.68088 0,-2.28689 0.59038,-3.46816 2.32814,-4.65827 2.2567,-1.5455 2.37962,-1.52799 4.00532,0.57044 1.67696,2.16458 1.55156,4.74236 -0.35166,7.2288 -0.93997,1.22803 -4.40146,1.57466 -5.39146,0.53991 z"
       id="path1252" />
  </g>
</svg>
